<?xml version="1.0" standalone="no"?>
<!DOCTYPE svg PUBLIC "-//W3C//DTD SVG 20010904//EN"
 "http://www.w3.org/TR/2001/REC-SVG-20010904/DTD/svg10.dtd">
<svg version="1.0" xmlns="http://www.w3.org/2000/svg"
 width="1000.000000pt" height="1000.000000pt" viewBox="0 0 1000.000000 1000.000000"
 preserveAspectRatio="xMidYMid meet">
<metadata>
Created by potrace 1.14, written by Peter Selinger 2001-2017
</metadata>
<g transform="translate(0.000000,1000.000000) scale(0.100000,-0.100000)"
fill="#000000" stroke="none">
<path d="M4877 9894 c-1 -1 -49 -5 -107 -8 -58 -4 -123 -8 -145 -11 -22 -2
-65 -7 -95 -10 -86 -9 -132 -14 -170 -21 -19 -3 -46 -8 -60 -10 -14 -2 -38 -6
-55 -9 -16 -2 -48 -7 -70 -10 -22 -3 -53 -9 -70 -12 -37 -8 -31 -7 -80 -17
-172 -32 -556 -140 -563 -158 -2 -4 -7 -6 -11 -3 -18 10 -443 -154 -434 -168
3 -6 1 -7 -5 -3 -6 4 -63 -18 -127 -49 -63 -30 -116 -54 -118 -53 -1 1 -20
-10 -42 -24 -22 -14 -80 -47 -130 -73 -91 -49 -296 -172 -305 -184 -3 -3 -16
-12 -30 -20 -50 -27 -318 -223 -420 -307 -339 -278 -635 -595 -887 -949 -61
-87 -205 -312 -226 -355 -4 -8 -13 -24 -20 -35 -108 -180 -240 -450 -324 -664
-137 -354 -242 -746 -287 -1078 -17 -121 -34 -264 -34 -283 0 -8 -4 -62 -9
-120 -10 -130 -10 -560 0 -695 13 -164 28 -304 42 -385 3 -14 7 -41 10 -60 14
-93 61 -310 95 -445 101 -392 260 -781 474 -1160 76 -135 275 -436 306 -465 3
-3 17 -21 30 -40 91 -134 411 -484 600 -656 187 -170 596 -475 614 -457 7 7
-13 22 -139 109 -55 37 -102 71 -105 74 -3 3 -23 19 -45 35 -43 32 -137 106
-145 116 -3 3 -15 12 -26 20 -107 73 -517 483 -633 634 -199 259 -244 322
-378 535 -74 119 -220 399 -293 564 -58 131 -215 566 -205 566 3 0 -2 17 -10
38 -12 33 -59 213 -70 273 -3 13 -7 33 -9 44 -27 121 -57 302 -71 425 -3 25
-7 63 -10 85 -27 224 -27 764 0 991 2 22 7 62 9 89 9 86 51 348 69 430 26 115
62 257 73 286 9 28 10 40 1 49 -9 10 -9 11 0 6 11 -6 17 7 38 84 26 95 118
348 161 446 10 22 26 59 37 84 79 180 261 520 354 660 16 25 47 72 69 105 53
82 227 316 253 339 11 11 21 23 21 27 0 4 10 19 23 32 74 79 152 172 150 179
-2 4 3 8 11 8 8 0 16 4 18 9 10 29 316 323 453 436 26 22 56 47 64 55 15 14
142 110 205 155 15 11 44 33 64 48 21 16 56 40 80 54 23 14 39 30 35 35 -3 6
-1 8 4 5 6 -4 71 31 144 77 74 46 159 97 189 115 94 53 454 229 485 236 6 1
30 12 55 23 25 11 72 30 105 42 33 12 69 26 80 31 61 27 328 111 396 124 9 2
36 10 61 18 24 9 60 18 81 22 20 4 37 10 37 14 0 3 10 6 23 7 24 1 67 8 167
29 14 3 43 8 65 10 22 3 51 7 65 10 14 3 39 7 55 10 17 2 41 6 55 9 14 3 50 8
80 10 62 6 135 14 195 21 198 25 747 25 995 1 96 -9 171 -18 192 -21 13 -2 46
-6 73 -10 28 -3 69 -10 93 -16 23 -5 59 -12 80 -15 20 -3 44 -7 52 -9 8 -3 33
-7 55 -10 53 -8 415 -99 502 -126 234 -74 533 -187 703 -266 100 -46 345 -170
395 -199 22 -12 54 -28 70 -33 30 -11 30 -11 -8 23 -42 37 -552 296 -607 308
-8 2 -17 5 -20 8 -11 12 -303 122 -425 160 -235 74 -472 136 -540 142 -16 2
-32 6 -35 9 -3 4 -21 9 -40 12 -19 3 -87 14 -150 25 -111 20 -181 30 -245 38
-16 2 -41 5 -55 8 -14 2 -65 8 -115 11 -49 4 -115 9 -145 12 -56 4 -559 11
-563 7z"/>
<path d="M3890 9705 c-184 -50 -391 -115 -475 -150 -16 -7 -88 -36 -160 -65
-208 -85 -463 -212 -644 -322 -34 -21 -65 -38 -67 -38 -3 0 -10 -4 -17 -10 -7
-5 -74 -50 -150 -100 -127 -84 -409 -295 -432 -324 -5 -7 -17 -17 -27 -22 -14
-8 -86 -71 -202 -177 -150 -138 -350 -350 -461 -488 -74 -92 -264 -347 -308
-414 -26 -38 -50 -75 -54 -81 -18 -24 -162 -263 -193 -319 -106 -189 -244
-481 -235 -496 4 -5 2 -9 -3 -9 -5 0 -19 -28 -31 -62 -13 -35 -29 -76 -36 -93
-12 -27 -102 -308 -110 -345 -2 -8 -15 -62 -29 -120 -25 -107 -50 -227 -61
-290 -3 -19 -10 -60 -15 -90 -5 -30 -12 -80 -15 -110 -3 -30 -8 -66 -10 -80
-26 -145 -26 -831 0 -968 2 -9 4 -17 5 -17 1 0 3 -20 5 -45 7 -90 37 -258 90
-510 9 -41 21 -88 27 -104 6 -16 13 -38 14 -50 4 -43 92 -326 151 -486 89
-243 216 -519 342 -744 34 -60 61 -111 61 -112 0 -2 32 -53 70 -114 39 -61 70
-114 70 -119 0 -4 9 -16 20 -26 11 -10 20 -24 20 -32 0 -7 5 -13 10 -13 6 0
10 -4 10 -10 0 -15 160 -230 171 -230 10 0 -1 17 -125 202 -67 101 -98 148
-128 198 -8 14 -23 37 -33 53 -9 15 -15 27 -12 27 3 0 22 -27 43 -60 20 -33
40 -57 45 -54 5 3 7 -1 4 -8 -4 -13 98 -162 180 -263 43 -53 49 -61 93 -117
63 -81 146 -167 155 -161 6 4 7 1 3 -6 -8 -13 291 -318 413 -422 35 -30 69
-58 75 -64 136 -122 446 -340 661 -466 109 -64 433 -227 533 -269 40 -17 78
-28 84 -24 6 4 8 3 4 -4 -3 -6 9 -15 31 -22 21 -7 43 -16 48 -20 20 -15 108
-39 118 -33 5 3 7 2 4 -4 -11 -17 644 -215 660 -199 4 3 11 2 17 -3 6 -5 29
-12 51 -15 22 -3 51 -8 65 -11 14 -3 39 -7 55 -9 17 -3 71 -11 120 -20 50 -8
119 -18 155 -22 36 -3 74 -8 85 -10 11 -2 56 -6 100 -9 44 -3 112 -8 150 -11
125 -8 416 -10 421 -2 3 5 10 5 16 2 9 -6 52 -6 196 -1 12 1 22 3 22 6 0 4 21
5 47 5 44 -1 149 9 198 20 11 2 47 7 80 10 46 6 214 36 330 60 82 17 165 42
165 48 0 5 4 7 8 4 5 -3 33 2 63 10 30 8 65 17 79 20 45 9 60 15 55 24 -3 4 3
6 12 4 10 -3 56 9 103 26 47 18 103 37 125 44 148 48 531 225 684 318 34 21
65 38 67 38 10 0 253 164 353 239 98 73 208 160 247 196 7 5 51 46 99 90 115
104 254 243 335 335 36 40 74 82 85 94 11 12 40 46 65 76 25 30 47 57 50 60 6
5 79 98 156 200 188 245 422 641 514 870 12 30 29 69 36 87 8 17 14 37 14 45
0 8 4 18 9 24 7 8 57 151 66 194 2 8 16 58 31 110 14 52 28 104 30 115 2 11 8
40 14 65 5 25 12 56 14 70 2 14 9 45 14 70 6 25 13 67 17 94 3 27 9 54 12 59
4 6 1 7 -8 2 -11 -7 -12 -6 -3 6 15 18 23 80 40 294 13 165 7 515 -11 710 -7
74 -6 72 -15 44 -7 -26 -7 -50 5 -209 12 -163 7 -445 -11 -615 -20 -188 -41
-330 -78 -515 -34 -166 -99 -413 -125 -474 -87 -199 -113 -256 -164 -356 -75
-146 -207 -373 -276 -475 -19 -27 -48 -70 -65 -95 -98 -148 -267 -358 -416
-519 -182 -198 -281 -292 -550 -521 -64 -54 -255 -193 -410 -297 -240 -161
-553 -307 -855 -397 -49 -15 -101 -31 -115 -36 -14 -4 -55 -16 -92 -26 -38 -9
-68 -21 -68 -25 0 -5 -6 -6 -14 -3 -8 3 -33 0 -57 -6 -51 -14 -51 -14 -145
-34 -39 -9 -88 -18 -110 -21 -63 -10 -97 -15 -129 -21 -28 -5 -46 -7 -145 -19
-19 -2 -55 -6 -80 -9 -65 -8 -211 -21 -360 -32 -184 -13 -706 -5 -764 12 -14
5 -16 3 -10 -7 6 -11 5 -12 -7 -3 -8 7 -48 15 -89 18 -41 4 -88 9 -105 12 -75
11 -97 14 -132 19 -21 2 -49 7 -63 10 -14 3 -38 8 -55 11 -56 9 -130 23 -155
29 -14 4 -43 11 -65 15 -22 5 -74 18 -115 30 -41 11 -84 23 -94 25 -11 2 -40
11 -66 20 -26 9 -55 17 -66 20 -19 4 -241 82 -298 104 -16 6 -26 14 -23 17 2
3 22 -2 43 -11 58 -25 123 -46 144 -48 11 -1 17 -3 14 -6 -3 -3 21 -13 53 -22
32 -9 117 -33 188 -54 72 -21 139 -39 150 -40 11 -1 28 -5 37 -9 10 -5 35 -9
57 -9 21 -1 37 -5 35 -8 -3 -6 58 -19 238 -48 95 -15 106 -15 95 -1 -9 11 -7
11 8 -2 12 -10 48 -19 90 -23 39 -4 86 -9 105 -11 19 -3 94 -7 165 -10 72 -2
151 -6 178 -7 26 -2 47 1 47 6 0 6 5 5 13 0 17 -13 226 -8 447 12 192 17 214
19 248 29 9 3 37 7 62 10 25 3 54 8 65 10 36 7 105 18 110 17 2 0 19 5 37 10
18 5 45 12 60 14 69 13 303 75 351 94 15 6 27 8 27 5 0 -4 6 -2 13 4 6 5 28
13 47 17 19 4 41 12 49 19 8 6 16 10 17 9 7 -5 183 58 259 92 28 12 71 31 97
41 25 10 44 22 42 26 -3 4 1 6 8 3 18 -6 294 141 290 155 -1 6 2 9 8 5 13 -8
142 64 135 76 -4 5 0 6 7 4 15 -6 284 165 306 193 7 9 15 16 18 14 5 -3 47 26
77 53 7 6 28 22 47 35 19 13 37 27 40 30 3 3 44 38 93 79 48 40 87 78 87 84 0
6 3 8 6 5 12 -13 277 250 267 265 -3 5 -1 7 4 4 33 -21 538 620 517 655 -4 7
-3 8 5 4 6 -4 14 0 18 11 4 10 9 20 13 23 22 19 269 476 275 510 1 3 11 26 23
52 12 26 22 60 22 75 l-1 28 -29 -35 c-16 -19 -30 -39 -30 -44 0 -5 -7 -17
-15 -26 -9 -10 -18 -27 -20 -39 -2 -12 -13 -37 -24 -54 -11 -18 -26 -44 -33
-58 -28 -54 -146 -235 -225 -345 -46 -63 -83 -119 -83 -125 0 -5 -4 -9 -8 -9
-5 0 -24 -21 -42 -48 -19 -26 -45 -58 -57 -72 -13 -14 -23 -28 -23 -31 0 -4
-15 -22 -32 -41 -18 -19 -60 -65 -93 -103 -33 -38 -83 -93 -112 -123 -29 -30
-50 -59 -46 -65 3 -6 2 -7 -4 -4 -5 3 -30 -15 -54 -41 -25 -26 -85 -85 -135
-131 -49 -46 -89 -88 -89 -94 0 -5 -8 -11 -17 -13 -9 -1 -28 -13 -41 -26 -13
-12 -38 -34 -56 -48 -19 -14 -50 -39 -70 -55 -92 -78 -250 -191 -368 -265 -46
-28 -83 -56 -83 -61 0 -6 -3 -8 -7 -6 -5 3 -39 -14 -78 -38 -64 -40 -418 -221
-507 -260 -66 -28 -116 -44 -241 -75 -186 -47 -255 -62 -352 -76 -22 -3 -48
-7 -57 -10 -23 -7 -45 -11 -102 -18 -27 -4 -53 -9 -57 -12 -4 -2 -34 -7 -66
-9 -32 -3 -78 -7 -103 -10 -91 -11 -185 -17 -180 -12 3 2 28 7 57 11 28 3 57
8 65 11 7 3 27 7 43 9 17 3 39 6 50 9 11 2 36 7 55 11 55 10 68 13 195 46 66
17 127 33 135 34 33 8 266 89 285 99 11 6 28 12 37 14 10 2 37 11 60 22 24 10
68 29 98 41 68 28 356 169 430 211 119 68 445 289 475 323 6 6 19 16 30 23 11
6 19 16 17 22 -1 6 2 10 7 9 24 -7 379 325 479 447 17 22 44 54 58 70 160 188
414 561 399 585 -4 6 -1 9 5 8 12 -3 27 22 103 165 25 48 43 87 39 87 -4 0 -2
4 4 8 13 8 91 178 145 314 43 107 44 112 28 102 -8 -4 -9 0 -4 15 3 11 3 21
-2 21 -13 0 -34 -37 -75 -132 -20 -47 -48 -106 -61 -130 -13 -23 -41 -74 -62
-113 -45 -84 -170 -285 -231 -373 -25 -35 -41 -68 -38 -74 4 -6 2 -8 -3 -5
-14 9 -85 -83 -78 -101 2 -7 1 -11 -4 -8 -5 3 -26 -16 -47 -42 -21 -26 -43
-52 -49 -58 -5 -6 -28 -33 -50 -60 -84 -102 -232 -253 -370 -379 -49 -44 -101
-91 -116 -105 -15 -14 -37 -32 -49 -40 -30 -21 -80 -62 -102 -83 -10 -9 -22
-17 -27 -17 -5 0 -11 -3 -13 -7 -6 -14 -291 -206 -375 -253 -23 -13 -39 -28
-36 -33 3 -6 2 -8 -3 -5 -15 9 -56 -11 -48 -23 4 -7 3 -9 -4 -5 -14 9 -123
-45 -115 -57 3 -6 1 -7 -5 -3 -6 3 -65 -21 -131 -54 -66 -33 -122 -60 -126
-60 -3 0 -22 -7 -43 -17 -20 -9 -39 -17 -42 -18 -3 -1 -16 -6 -30 -12 -132
-54 -378 -139 -430 -149 -14 -3 -27 -9 -28 -15 -2 -5 -7 -7 -11 -5 -6 4 -50
-4 -111 -20 -8 -2 -35 -8 -60 -14 -25 -6 -52 -13 -60 -17 -8 -3 -19 -5 -24 -4
-5 1 -41 -5 -80 -13 -39 -9 -87 -18 -106 -20 -19 -3 -51 -7 -70 -10 -19 -3
-55 -8 -80 -11 -25 -3 -56 -7 -70 -10 -14 -3 -65 -7 -115 -11 -49 -3 -106 -7
-125 -9 -91 -10 -466 -4 -620 10 -122 11 -143 13 -180 19 -19 3 -53 8 -75 11
-22 3 -67 10 -100 16 -33 6 -71 13 -85 15 -158 27 -473 113 -620 171 -36 14
-83 31 -105 38 -22 7 -92 36 -155 65 -63 28 -119 52 -125 53 -5 1 -12 4 -15 7
-16 16 -123 59 -132 54 -6 -4 -8 -3 -5 3 5 8 -61 48 -72 43 -2 -1 -7 2 -10 7
-8 13 -144 88 -153 85 -5 -1 -8 2 -8 7 0 10 -38 34 -72 47 -10 3 -18 10 -18
15 0 5 -5 9 -10 9 -6 0 -35 18 -65 40 -30 22 -57 40 -59 40 -3 0 -14 6 -23 14
-10 8 -58 45 -108 82 -94 70 -176 136 -235 191 -19 18 -38 33 -41 33 -4 0 -37
29 -74 65 -37 36 -71 62 -76 59 -5 -3 -8 -1 -7 4 2 5 -37 52 -87 104 -112 118
-145 155 -219 245 -33 40 -64 69 -70 66 -6 -3 -8 -3 -4 2 11 11 -11 47 -24 39
-6 -4 -8 -3 -4 4 3 6 0 16 -7 24 -7 7 -35 43 -60 81 -26 37 -67 96 -92 132
-25 36 -45 68 -45 72 0 3 -11 21 -25 38 -13 18 -21 35 -18 39 4 3 1 6 -5 6 -7
0 -12 6 -12 14 0 8 -3 16 -7 18 -9 3 -29 41 -114 208 -137 271 -226 496 -308
780 -34 120 -44 158 -77 310 -9 41 -22 78 -28 82 -6 4 -8 8 -4 8 13 0 -14 60
-27 60 -7 0 -15 19 -19 47 -11 82 -17 116 -27 173 -6 30 -11 62 -11 70 0 8 -4
56 -9 105 -11 96 -15 160 -26 375 -10 207 -5 402 10 393 4 -2 7 8 8 24 0 28 1
35 19 132 5 29 7 57 4 62 -3 5 -1 9 4 9 5 0 9 6 9 13 1 49 98 428 130 507 4 8
7 17 8 20 5 20 49 147 54 155 3 6 6 15 7 20 1 6 11 32 23 57 11 26 21 52 21
59 0 7 3 9 6 6 4 -4 0 -26 -9 -49 -36 -100 -81 -255 -81 -285 -1 -17 -4 -29
-7 -28 -5 3 -46 -164 -64 -260 -3 -16 -8 -41 -10 -55 -5 -23 -25 -158 -44
-292 -5 -36 -4 -58 2 -58 5 0 3 -7 -4 -16 -11 -13 -14 -79 -15 -308 -1 -160 2
-329 7 -376 5 -47 11 -111 14 -142 2 -32 7 -70 9 -85 2 -16 7 -53 11 -83 4
-30 10 -71 15 -90 5 -19 11 -51 14 -70 14 -99 40 -210 48 -210 5 0 7 -4 3 -10
-3 -5 1 -31 9 -57 8 -26 20 -69 26 -95 7 -28 17 -45 23 -41 6 3 7 1 3 -6 -7
-11 19 -115 34 -136 4 -5 11 -25 15 -42 3 -18 11 -33 16 -33 6 0 8 -4 5 -9 -7
-10 23 -89 83 -223 12 -26 21 -50 21 -53 0 -7 113 -234 160 -320 18 -33 37
-70 44 -82 6 -13 14 -23 19 -23 4 0 7 -5 7 -10 0 -13 81 -144 92 -148 4 -2 8
-8 8 -13 0 -9 115 -174 137 -197 7 -7 13 -16 13 -20 0 -4 13 -21 28 -38 15
-18 43 -51 62 -75 19 -23 51 -60 71 -81 20 -21 35 -38 32 -38 -11 0 226 -241
327 -333 30 -28 59 -46 67 -43 8 4 11 1 7 -5 -5 -9 6 -21 74 -79 44 -38 224
-170 231 -170 5 0 11 -3 13 -7 5 -11 66 -53 77 -53 5 0 11 -4 13 -8 4 -10 133
-91 150 -94 7 -2 17 -8 23 -15 13 -16 303 -165 418 -215 131 -56 337 -129 348
-122 5 3 9 1 9 -4 0 -8 34 -22 52 -22 2 0 26 -8 53 -16 99 -31 336 -86 343
-80 2 3 16 0 31 -5 14 -6 42 -12 61 -15 19 -2 62 -9 95 -15 33 -6 89 -13 125
-15 36 -2 65 -4 65 -4 0 -7 79 -11 288 -16 163 -3 247 -2 247 5 0 15 -47 20
-225 26 -88 3 -171 7 -185 9 -14 2 -54 7 -90 11 -36 4 -76 8 -90 10 -14 2 -49
6 -79 10 -44 5 -249 45 -311 60 -8 2 -61 15 -117 30 -57 14 -108 23 -115 19
-7 -4 -8 -3 -4 4 4 7 -4 14 -21 18 -29 6 -132 40 -168 54 -11 4 -36 13 -55 20
-39 14 -48 18 -200 84 -58 25 -123 54 -144 65 -21 11 -43 18 -49 14 -6 -3 -7
-2 -4 4 3 5 -12 18 -35 28 -140 61 -523 318 -703 469 -164 139 -446 422 -508
511 -10 14 -23 22 -29 19 -6 -4 -8 -3 -5 3 4 6 -5 23 -18 37 -14 15 -25 31
-25 37 0 5 -7 12 -15 15 -8 4 -15 10 -15 15 0 13 -101 149 -111 149 -5 0 -8 3
-7 8 5 13 -129 212 -137 204 -5 -4 -5 -2 -1 5 3 6 -11 40 -32 75 -61 99 -225
440 -251 521 -7 20 -16 35 -19 33 -4 -2 -8 8 -9 22 -1 15 -8 43 -17 62 -8 19
-14 37 -14 40 0 3 -7 23 -16 45 -8 22 -24 74 -36 115 -11 41 -25 84 -30 95 -8
19 -45 170 -55 225 -3 14 -8 39 -12 55 -7 34 -10 47 -17 90 -14 79 -18 106
-32 215 -3 25 -7 58 -10 75 -27 201 -26 680 2 905 3 19 6 49 8 65 2 17 6 37 9
45 8 19 48 169 51 190 1 9 5 20 8 25 3 6 9 26 14 45 10 43 9 42 17 60 3 8 17
51 31 95 13 44 41 125 61 180 20 55 38 107 38 115 1 8 8 21 15 28 6 7 12 20
12 28 0 8 4 22 10 32 5 9 19 40 30 67 106 253 259 539 413 770 44 66 89 132
101 147 12 14 32 41 46 59 145 193 332 400 494 546 35 32 55 57 50 64 -4 8 -3
9 4 5 20 -12 342 267 342 296 0 14 -17 16 -37 5 -12 -7 -42 -23 -67 -36 -26
-14 -43 -29 -39 -35 3 -6 3 -8 -2 -4 -4 4 -24 -6 -44 -23 -20 -16 -41 -33 -46
-37 -6 -4 -21 -16 -33 -26 -12 -11 -24 -17 -27 -14 -2 2 19 22 48 44 28 21 58
45 65 51 8 7 34 27 58 44 25 17 42 35 38 41 -4 7 -2 8 4 4 9 -6 59 21 82 44 9
9 69 50 73 50 15 0 155 89 149 95 -4 5 -2 5 5 2 13 -8 45 2 38 12 -2 4 2 8 9
8 16 0 169 75 178 88 4 5 8 7 8 3 0 -3 46 14 103 38 56 25 113 50 127 55 14 6
38 17 53 25 16 8 36 14 46 14 9 0 21 4 27 8 5 5 28 14 52 21 26 7 40 16 36 23
-4 7 -3 8 4 4 13 -8 68 20 93 47 21 22 195 82 359 123 69 17 107 26 120 29
181 38 242 49 405 70 125 17 306 28 447 29 76 1 138 5 138 9 0 5 5 5 10 2 6
-4 56 -8 113 -10 162 -6 408 -30 507 -49 14 -3 41 -7 60 -10 48 -6 187 -34
230 -46 19 -6 46 -12 60 -15 14 -2 43 -9 65 -15 22 -6 49 -13 60 -16 27 -7 37
-10 55 -16 8 -3 89 -29 180 -58 91 -29 170 -56 175 -60 6 -4 37 -17 70 -30 84
-33 175 -74 280 -127 121 -60 116 -58 150 -77 17 -10 42 -23 58 -29 15 -6 27
-15 27 -19 0 -4 4 -8 9 -8 10 0 115 -63 204 -121 32 -22 63 -39 68 -39 5 0 9
-4 9 -8 0 -5 10 -14 23 -20 12 -6 49 -32 82 -57 33 -25 66 -48 74 -52 8 -3 22
-14 31 -22 9 -9 34 -29 55 -46 84 -65 201 -166 287 -248 22 -20 45 -34 50 -31
6 4 8 2 5 -3 -4 -6 34 -52 84 -103 50 -51 131 -140 181 -199 49 -58 99 -114
110 -123 11 -10 17 -18 13 -18 -4 0 7 -17 24 -37 49 -58 201 -272 238 -333 11
-19 46 -78 78 -130 32 -52 73 -124 92 -160 19 -36 38 -72 43 -80 13 -20 101
-210 136 -292 15 -37 32 -64 38 -61 5 3 6 1 2 -5 -4 -7 8 -51 27 -99 19 -49
49 -133 67 -188 52 -162 78 -218 103 -223 16 -3 21 22 19 88 -1 35 -23 163
-31 175 -3 6 -7 19 -8 30 -3 22 -87 271 -108 320 -7 17 -18 46 -26 65 -7 19
-27 67 -44 105 -18 39 -35 78 -38 88 -4 10 -11 15 -17 12 -5 -3 -7 0 -5 7 5
11 -32 89 -122 261 -8 15 -19 27 -24 27 -5 0 -8 3 -7 8 7 19 -204 352 -223
352 -6 0 -8 4 -4 9 3 5 -5 17 -17 26 -13 8 -22 19 -20 23 3 7 -28 49 -65 89
-13 13 -23 27 -23 31 0 4 -10 18 -23 32 -12 14 -35 41 -51 60 -74 91 -170 189
-179 183 -6 -3 -7 -1 -3 5 14 23 -318 325 -539 491 -191 143 -219 162 -231
157 -8 -3 -13 0 -11 6 1 6 -11 18 -28 27 -16 9 -32 19 -35 22 -3 3 -34 23 -70
44 -36 21 -76 45 -90 54 -64 40 -112 61 -122 55 -7 -4 -8 -3 -4 4 8 13 -292
163 -331 166 -11 0 -20 3 -18 6 2 3 -11 12 -28 19 -18 7 -45 19 -62 26 -79 33
-165 65 -177 65 -8 0 -18 4 -24 8 -5 5 -29 15 -54 22 -25 8 -47 14 -50 15 -3
1 -12 5 -20 8 -28 12 -218 64 -260 72 -8 1 -22 5 -31 9 -9 4 -27 8 -41 10 -13
1 -29 6 -36 10 -7 4 -12 5 -12 2 0 -2 -15 0 -32 5 -70 20 -183 40 -205 36 -12
-2 -20 0 -17 4 3 5 -7 9 -23 10 -15 0 -37 2 -48 5 -33 7 -87 14 -140 19 -27 3
-68 7 -90 10 -121 13 -219 17 -390 19 -234 2 -297 -2 -289 -17 4 -8 2 -7 -7 1
-7 6 -21 12 -32 12 -12 0 -16 -4 -11 -12 6 -10 4 -10 -7 -2 -8 6 -21 10 -29 9
-8 -1 -44 -5 -80 -9 -36 -4 -85 -9 -110 -12 -25 -3 -58 -7 -75 -9 -45 -5 -107
-14 -135 -20 -14 -3 -43 -8 -65 -11 -22 -3 -68 -12 -103 -21 -34 -8 -73 -16
-85 -18 -12 -2 -40 -9 -62 -15 -22 -6 -51 -13 -65 -16 -59 -11 -140 -41 -133
-49 5 -4 2 -5 -5 -1 -27 16 -305 -82 -537 -189 -48 -22 -44 -21 -72 -30 -13
-4 -23 -12 -23 -18 0 -6 -3 -8 -6 -4 -7 6 -243 -113 -316 -160 -24 -15 -59
-36 -78 -46 -19 -11 -38 -25 -42 -31 -4 -6 -8 -7 -8 -3 0 4 -15 -3 -33 -17
-19 -15 -37 -26 -41 -26 -5 0 -119 -79 -225 -157 -74 -54 -175 -134 -222 -175
-30 -26 -65 -56 -79 -68 -74 -63 -139 -133 -133 -142 3 -6 1 -8 -4 -5 -14 9
-185 -162 -176 -176 3 -5 2 -7 -4 -4 -6 4 -42 -27 -82 -68 -39 -41 -70 -75
-68 -75 3 0 -12 -17 -32 -38 -117 -121 -359 -441 -344 -456 3 -3 2 -6 -4 -6
-11 0 -49 -54 -90 -128 -28 -52 -66 -98 -43 -52 26 50 175 297 217 358 24 35
40 68 37 74 -4 6 -2 8 4 4 6 -3 34 27 65 72 49 70 160 212 197 253 8 9 37 42
64 73 28 32 69 78 93 103 23 25 39 51 36 56 -3 6 -2 7 4 4 5 -3 47 31 94 76
107 104 242 224 315 282 21 17 46 38 56 48 10 9 21 17 25 17 5 0 22 12 38 28
17 15 59 47 95 71 36 25 67 48 70 51 3 4 33 24 68 45 34 21 62 42 62 47 0 5 4
7 9 4 5 -3 20 3 34 14 14 11 27 20 30 20 3 0 34 17 68 38 154 93 377 205 564
282 11 5 36 15 55 23 88 37 357 131 405 141 6 1 37 10 70 20 73 22 70 21 122
31 24 4 40 11 37 16 -3 5 2 6 10 3 9 -3 24 -3 34 1 9 4 28 9 41 11 13 2 47 8
75 14 28 6 62 13 76 16 49 8 86 14 125 19 22 3 51 8 65 11 14 3 43 8 65 10 22
3 54 7 70 9 17 3 66 7 111 11 99 7 112 8 120 16 3 4 16 3 29 -2 13 -5 25 -6
28 -3 4 3 98 7 211 8 113 2 209 6 215 9 5 4 12 2 15 -3 3 -4 29 -9 58 -10 29
-1 73 -4 98 -6 25 -2 81 -6 125 -9 44 -4 87 -9 95 -11 8 -2 42 -7 75 -10 71
-7 103 -11 142 -19 15 -3 46 -8 68 -12 22 -3 94 -17 160 -30 66 -14 131 -28
144 -30 14 -3 28 -7 31 -9 4 -2 22 -7 41 -10 45 -9 63 -13 67 -15 1 -2 5 -3
10 -4 4 -1 54 -17 112 -35 58 -19 110 -34 115 -36 6 -1 17 -5 25 -8 8 -3 35
-13 60 -21 122 -41 320 -122 464 -190 54 -25 101 -46 105 -46 3 0 23 -11 43
-25 20 -14 44 -25 52 -25 9 0 16 -4 16 -10 0 -5 4 -10 10 -10 5 0 39 -18 75
-40 36 -22 69 -40 74 -40 5 0 11 -3 13 -7 2 -5 19 -17 38 -27 81 -44 318 -201
360 -239 8 -7 49 -39 90 -69 41 -31 90 -70 107 -87 18 -17 35 -31 38 -31 3 0
13 -8 23 -17 10 -10 72 -67 137 -128 142 -131 281 -271 350 -351 28 -32 62
-71 78 -87 15 -16 27 -31 27 -34 0 -11 64 -78 73 -75 5 1 6 -1 4 -5 -3 -5 26
-51 65 -103 39 -52 82 -113 97 -135 14 -22 28 -42 31 -45 11 -9 100 -149 100
-156 0 -4 11 -22 25 -40 14 -18 25 -35 25 -38 0 -3 19 -38 43 -78 53 -91 182
-345 192 -378 4 -14 15 -33 24 -44 9 -10 15 -21 15 -25 -2 -9 3 -24 56 -156
27 -66 54 -138 60 -160 7 -22 15 -44 19 -50 3 -5 6 -14 7 -20 1 -5 14 -48 29
-95 26 -84 83 -292 91 -339 3 -13 11 -50 19 -83 7 -32 14 -61 14 -63 1 -3 1
-6 2 -7 1 -2 2 -14 3 -28 3 -23 14 -96 36 -230 5 -30 12 -80 15 -110 3 -30 8
-77 12 -105 3 -27 5 -60 4 -72 0 -13 3 -23 8 -23 5 0 8 -7 7 -16 -2 -31 22
-25 26 6 10 71 -4 294 -28 435 -3 17 -12 71 -20 120 -7 50 -19 110 -24 135
-30 127 -51 217 -55 234 -12 53 -75 265 -85 291 -12 31 -23 59 -26 70 -1 6 -8
24 -15 40 -6 17 -13 37 -15 46 -2 9 -13 38 -25 65 -12 27 -23 54 -24 59 -8 35
-145 319 -159 327 -6 4 -8 8 -4 8 9 0 -65 141 -123 239 -22 34 -39 65 -39 67
0 11 -105 164 -112 164 -5 0 -7 4 -3 9 3 5 0 15 -7 23 -7 7 -35 46 -63 87 -27
40 -60 84 -71 97 -12 12 -24 27 -25 33 -6 15 -207 256 -257 307 -7 8 -18 14
-24 14 -6 0 -9 3 -5 6 9 10 -94 114 -106 107 -6 -3 -7 -2 -4 4 8 13 -67 86
-78 76 -4 -5 -5 -3 -2 3 4 6 -21 37 -56 69 -34 31 -78 72 -97 89 -53 49 -210
179 -250 207 -19 13 -44 31 -54 41 -11 10 -38 30 -60 45 -23 15 -58 40 -78 56
-21 16 -43 25 -49 21 -7 -4 -9 -3 -6 3 7 10 -73 73 -92 73 -6 0 -11 4 -11 8 0
7 -49 35 -75 42 -5 2 -14 9 -20 16 -31 39 -579 322 -732 378 -24 9 -62 23 -85
31 -24 9 -57 22 -75 30 -17 8 -36 15 -42 15 -6 0 -19 4 -29 10 -23 13 -207 73
-326 105 -137 37 -138 38 -168 39 -14 0 -25 4 -23 7 3 4 -85 25 -190 44 -11 2
-31 6 -45 9 -14 3 -43 8 -65 11 -22 3 -67 10 -100 16 -72 13 -89 15 -180 24
-38 3 -90 8 -115 10 -291 27 -650 23 -955 -11 -60 -6 -300 -42 -335 -49 -14
-3 -37 -7 -52 -10 -16 -3 -58 -12 -95 -21 -38 -9 -77 -18 -88 -20 -46 -8 -160
-39 -165 -44 -3 -3 -18 -6 -33 -7 -15 -1 -42 -9 -59 -17 -17 -9 -37 -16 -43
-16 -15 0 -246 -75 -290 -95 -16 -7 -52 -21 -80 -30 -71 -26 -239 -101 -366
-165 -149 -75 -213 -112 -331 -187 -27 -18 -54 -33 -59 -33 -5 0 -9 -4 -9 -9
0 -5 -8 -11 -17 -13 -32 -9 -353 -242 -428 -311 -8 -6 -31 -25 -51 -42 -126
-100 -436 -411 -514 -515 -14 -18 -37 -47 -53 -64 -15 -17 -30 -36 -35 -41 -4
-6 -23 -30 -43 -55 -100 -126 -282 -402 -282 -427 0 -7 -4 -10 -8 -8 -10 7
-20 -25 -12 -37 3 -6 1 -8 -5 -4 -6 3 -17 -6 -24 -21 -8 -16 -29 -55 -48 -88
-53 -96 -163 -319 -163 -332 0 -7 -4 -13 -9 -13 -4 0 -8 -6 -8 -13 0 -7 -9
-33 -21 -56 -11 -24 -18 -49 -15 -57 3 -8 2 -13 -3 -10 -5 3 -19 -22 -31 -57
-12 -34 -25 -69 -30 -77 -7 -15 -61 -185 -64 -205 -1 -5 -4 -14 -8 -20 -3 -5
-18 -52 -32 -104 -14 -51 -28 -96 -31 -99 -2 -3 1 -12 8 -20 9 -13 9 -14 -1
-8 -8 5 -12 1 -13 -11 -1 -25 -5 -46 -17 -85 -14 -43 -36 -174 -37 -213 0 -16
-3 -32 -7 -35 -3 -3 -9 -30 -13 -60 -3 -30 -9 -68 -11 -85 -3 -16 -7 -52 -9
-80 -2 -27 -8 -88 -12 -135 -10 -102 -9 -607 1 -775 11 -185 22 -302 41 -405
2 -14 6 -41 9 -60 5 -33 18 -102 31 -160 3 -14 7 -38 10 -55 10 -59 17 -90 23
-100 4 -5 8 -21 9 -35 3 -27 20 -92 33 -125 15 -39 31 -107 27 -112 -3 -2 -8
9 -12 26 -4 17 -11 29 -16 26 -5 -4 -6 1 -3 10 4 9 2 26 -4 38 -5 12 -18 51
-27 87 -10 36 -24 85 -31 110 -18 57 -49 197 -74 325 -11 55 -22 111 -25 125
-3 14 -8 43 -11 65 -2 22 -6 54 -9 70 -26 186 -36 345 -36 585 -1 149 8 392
16 455 2 17 7 62 10 100 5 58 59 396 69 430 9 33 16 63 20 85 2 14 16 69 31
123 14 53 28 105 30 115 2 9 19 64 38 122 19 58 37 114 39 125 1 11 6 22 9 25
3 3 27 61 54 130 26 69 68 168 92 220 25 52 45 103 46 112 1 9 3 15 5 13 5 -4
93 155 115 208 6 15 15 27 19 27 4 0 8 5 8 10 0 6 29 58 65 116 36 58 62 110
59 116 -4 6 -3 8 3 5 5 -3 49 51 96 121 47 70 111 159 142 197 101 127 110
137 125 154 9 9 43 48 77 86 75 86 280 293 358 360 32 28 63 56 70 62 23 22
179 148 213 172 18 12 29 27 26 33 -4 7 -2 8 4 4 14 -9 143 84 135 97 -3 6 -1
7 5 3 14 -8 224 128 214 139 -4 5 -2 5 5 2 6 -4 51 16 100 44 86 50 344 181
530 269 50 24 89 48 86 53 -3 6 -1 7 5 3 20 -12 162 77 162 102 0 47 -254 -8
-440 -95 -131 -62 -355 -174 -360 -181 -3 -4 -31 -20 -62 -36 -33 -16 -55 -33
-51 -39 3 -5 1 -7 -5 -3 -10 6 -157 -77 -192 -109 -9 -8 -20 -15 -25 -15 -13
0 -322 -224 -345 -250 -3 -3 -32 -28 -65 -54 -33 -27 -59 -53 -57 -58 1 -5 -2
-7 -7 -4 -5 4 -18 -4 -28 -17 -10 -13 -20 -23 -23 -23 -12 2 -330 -309 -395
-384 -167 -196 -275 -333 -275 -349 0 -5 -4 -11 -8 -13 -10 -4 -132 -172 -132
-182 0 -4 -8 -16 -18 -27 -11 -10 -25 -32 -33 -47 -8 -15 -26 -45 -40 -67 -57
-85 -243 -437 -282 -531 -8 -21 -38 -93 -65 -159 -47 -112 -140 -376 -148
-419 -2 -11 -13 -47 -24 -80 -11 -34 -21 -77 -22 -96 -2 -19 -6 -37 -10 -40
-6 -5 -12 -28 -23 -85 -2 -11 -8 -42 -14 -70 -15 -70 -49 -252 -55 -300 -19
-144 -24 -190 -33 -320 -8 -123 -8 -518 0 -640 3 -44 6 -95 6 -113 1 -24 5
-31 14 -26 9 6 9 4 1 -7 -5 -8 -9 -23 -8 -34 8 -87 16 -152 19 -165 2 -8 7
-44 10 -80 4 -36 10 -69 13 -75 4 -5 7 -19 7 -30 2 -37 18 -120 27 -145 12
-29 18 -107 7 -88 -4 7 -12 46 -19 86 -7 39 -17 72 -22 72 -5 0 -7 4 -4 8 6
11 -15 82 -25 82 -20 0 -18 -96 5 -200 3 -13 8 -42 12 -64 3 -22 7 -43 9 -47
2 -3 6 -19 9 -35 3 -16 19 -81 36 -144 17 -63 33 -122 35 -130 2 -8 4 -15 5
-15 1 0 3 -9 5 -20 3 -11 20 -67 40 -125 20 -58 43 -126 52 -152 9 -26 20 -45
24 -42 5 3 6 -1 3 -9 -2 -7 5 -36 17 -63 44 -102 59 -145 48 -138 -6 3 -22 32
-35 63 -14 31 -29 65 -33 76 -56 130 -165 459 -196 593 -2 9 -12 46 -20 82
-30 119 -61 274 -75 370 -17 115 -19 132 -25 180 -3 25 -7 61 -10 80 -5 36
-14 158 -21 265 -4 70 -4 445 1 525 4 76 16 219 21 255 2 17 6 53 9 81 3 28 7
60 9 71 3 11 7 44 11 74 4 30 9 57 10 60 2 3 7 28 11 55 3 27 8 58 10 69 3 11
9 40 14 65 15 74 17 80 50 210 17 69 33 132 35 140 6 24 81 248 110 329 35 98
30 137 -7 61 -33 -66 -137 -376 -154 -457 -1 -6 -7 -27 -13 -45 -6 -18 -13
-44 -15 -58 -3 -14 -10 -45 -17 -70 -17 -69 -46 -214 -54 -265 -2 -11 -10 -65
-18 -120 -14 -90 -23 -161 -33 -250 -20 -189 -25 -610 -10 -790 4 -55 9 -118
10 -140 2 -22 6 -58 9 -80 4 -22 9 -60 12 -85 9 -68 15 -114 19 -135 2 -11 7
-40 11 -65 4 -25 9 -54 12 -65 2 -11 6 -33 9 -50 3 -16 9 -46 14 -65 5 -19 12
-48 15 -65 8 -45 35 -149 79 -305 9 -30 38 -120 66 -199 27 -80 46 -141 42
-135 -5 5 -23 50 -41 99 -18 50 -35 97 -38 105 -7 17 -6 12 -22 70 -7 25 -19
62 -27 82 -42 116 -143 566 -168 753 -13 98 -16 123 -21 175 -4 30 -8 71 -10
90 -8 75 -18 321 -18 440 1 197 21 500 38 560 2 8 6 40 10 70 7 76 31 210 54
310 5 25 12 56 14 70 10 50 50 196 98 354 4 16 6 33 2 39 -3 6 -1 7 4 4 6 -4
14 7 18 26 4 17 9 34 10 37 5 14 19 51 37 100 93 251 192 465 320 690 102 179
229 375 311 482 21 27 49 65 62 84 22 32 85 111 110 138 6 6 17 20 25 32 81
116 437 469 640 634 30 25 61 50 68 57 32 30 248 187 357 260 256 170 512 313
735 413 63 28 129 58 147 66 17 8 71 29 120 48 48 18 97 37 108 41 11 4 25 9
30 11 6 2 51 17 100 34 81 29 236 76 275 85 37 8 150 46 150 50 0 10 -48 2
-130 -20z m-1680 -1099 c0 -3 -4 -8 -10 -11 -5 -3 -10 -1 -10 4 0 6 5 11 10
11 6 0 10 -2 10 -4z m5355 -246 c3 -5 1 -10 -4 -10 -6 0 -11 5 -11 10 0 6 2
10 4 10 3 0 8 -4 11 -10z m-5760 -80 c3 -5 1 -10 -4 -10 -6 0 -11 5 -11 10 0
6 2 10 4 10 3 0 8 -4 11 -10z m85 -560 c0 -5 -2 -10 -4 -10 -3 0 -8 5 -11 10
-3 6 -1 10 4 10 6 0 11 -4 11 -10z m-440 -518 c0 -5 -7 -9 -15 -9 -8 0 -12 4
-9 9 3 4 9 8 15 8 5 0 9 -4 9 -8z m-330 -318 c0 -8 -19 -13 -24 -6 -3 5 1 9 9
9 8 0 15 -2 15 -3z m-129 -461 c-12 -20 -14 -14 -5 12 4 9 9 14 11 11 3 -2 0
-13 -6 -23z m-141 -57 c0 -3 -4 -8 -10 -11 -5 -3 -10 -1 -10 4 0 6 5 11 10 11
6 0 10 -2 10 -4z m-320 -646 c0 -5 -5 -10 -11 -10 -5 0 -7 5 -4 10 3 6 8 10
11 10 2 0 4 -4 4 -10z m320 -1360 c0 -5 -5 -10 -11 -10 -5 0 -7 5 -4 10 3 6 8
10 11 10 2 0 4 -4 4 -10z m-367 -609 c15 -57 25 -106 23 -108 -2 -2 -10 18
-17 46 -7 27 -15 48 -18 46 -3 -1 -6 11 -7 29 0 18 -4 41 -9 52 -10 24 -14 57
-5 47 4 -4 19 -55 33 -112z m97 -321 c30 -91 57 -172 61 -180 3 -8 35 -82 69
-165 69 -165 189 -411 254 -520 23 -38 48 -82 55 -97 8 -15 23 -37 33 -48 10
-11 17 -20 14 -20 -6 0 126 -201 146 -220 7 -8 24 -32 37 -52 12 -21 27 -38
32 -38 5 0 9 -6 9 -13 0 -19 35 -49 45 -40 4 5 5 2 1 -5 -4 -7 8 -31 31 -60
168 -210 473 -529 494 -517 7 5 10 4 6 -2 -4 -6 15 -30 41 -55 53 -50 300
-250 328 -266 10 -6 15 -14 11 -18 -5 -5 -11 -4 -15 2 -7 11 -150 127 -208
169 -15 11 -36 29 -46 39 -10 11 -18 17 -18 14 0 -17 -382 360 -497 489 -113
128 -202 237 -242 297 -43 63 -56 77 -66 68 -5 -4 -5 -1 -1 6 6 10 -83 165
-131 227 -4 6 -21 37 -38 68 -16 31 -33 57 -38 57 -4 0 -6 3 -3 8 7 11 -40 83
-49 74 -4 -4 -5 -1 0 7 5 9 3 18 -6 25 -8 6 -14 16 -14 21 -1 25 -79 174 -88
168 -6 -3 -7 -1 -3 5 4 6 -12 50 -34 98 -22 48 -43 97 -46 110 -4 13 -10 27
-15 30 -5 3 -7 10 -4 15 4 5 1 9 -4 9 -6 0 -11 6 -11 14 0 8 -10 36 -21 63
-12 26 -25 62 -30 78 -4 17 -28 89 -52 160 -24 72 -47 146 -51 165 -9 51 3 18
64 -170z m198 -75 c-3 -3 -9 2 -12 12 -6 14 -5 15 5 6 7 -7 10 -15 7 -18z m72
-109 c0 -2 -7 -7 -16 -10 -8 -3 -12 -2 -9 4 6 10 25 14 25 6z m80 0 c0 -3 -4
-8 -10 -11 -5 -3 -10 -1 -10 4 0 6 5 11 10 11 6 0 10 -2 10 -4z m-380 -91 c0
-5 -5 -3 -10 5 -5 8 -10 20 -10 25 0 6 5 3 10 -5 5 -8 10 -19 10 -25z m20 -36
c0 -6 -4 -7 -10 -4 -5 3 -10 11 -10 16 0 6 5 7 10 4 6 -3 10 -11 10 -16z m20
-54 c0 -5 -5 -3 -10 5 -5 8 -10 20 -10 25 0 6 5 3 10 -5 5 -8 10 -19 10 -25z
m13 -35 c3 -11 1 -18 -4 -14 -5 3 -9 12 -9 20 0 20 7 17 13 -6z m21 -46 c3 -8
2 -12 -4 -9 -6 3 -10 10 -10 16 0 14 7 11 14 -7z m56 -117 c0 -16 -18 3 -23
25 -6 22 -5 22 8 4 8 -11 15 -24 15 -29z m21 -43 c5 -15 8 -29 5 -31 -2 -2 -8
10 -14 26 -13 38 -5 41 9 5z m27 -69 c-3 -3 -9 2 -12 12 -6 14 -5 15 5 6 7 -7
10 -15 7 -18z m126 -231 c3 -8 2 -12 -4 -9 -6 3 -10 10 -10 16 0 14 7 11 14
-7z m26 -44 c6 -11 8 -20 6 -20 -3 0 -10 9 -16 20 -6 11 -8 20 -6 20 3 0 10
-9 16 -20z m28 -55 c-3 -3 -9 2 -12 12 -6 14 -5 15 5 6 7 -7 10 -15 7 -18z
m902 -785 c0 -5 -5 -10 -11 -10 -5 0 -7 5 -4 10 3 6 8 10 11 10 2 0 4 -4 4
-10z m469 -544 c9 -11 9 -16 -1 -22 -7 -4 -10 -4 -6 1 4 4 3 14 -3 22 -6 7 -9
13 -6 13 2 0 10 -6 16 -14z m306 4 c3 -5 1 -10 -4 -10 -6 0 -11 5 -11 10 0 6
2 10 4 10 3 0 8 -4 11 -10z m180 -106 c61 -32 121 -64 135 -71 151 -71 224
-103 330 -145 142 -56 151 -60 203 -83 20 -9 41 -14 46 -10 5 3 11 1 13 -5 2
-6 12 -12 23 -14 11 -2 38 -11 60 -19 67 -26 237 -76 260 -78 2 0 20 -6 40
-14 19 -9 38 -14 42 -13 5 0 15 -1 23 -5 8 -3 26 -8 40 -10 14 -3 44 -10 68
-16 23 -6 59 -14 80 -17 20 -3 51 -9 67 -14 17 -5 50 -12 75 -15 25 -4 68 -11
95 -16 87 -18 207 -32 350 -44 39 -3 95 -8 125 -11 53 -6 518 -7 572 -1 15 1
30 6 34 10 4 3 14 2 24 -3 10 -5 19 -8 21 -6 2 2 43 7 91 11 49 3 97 8 107 10
11 2 21 -2 24 -8 3 -8 -9 -12 -37 -12 -43 -1 -179 -13 -214 -20 -33 -6 -318
-18 -427 -18 -135 1 -364 14 -495 30 -30 4 -74 7 -97 7 -22 1 -39 4 -37 7 3 6
-87 21 -141 25 -11 0 -39 6 -61 13 -23 6 -54 13 -70 15 -50 7 -98 17 -124 27
-14 4 -36 10 -50 13 -120 20 -504 149 -685 230 -27 12 -66 29 -85 36 -48 19
-331 164 -377 193 -83 52 -154 88 -163 82 -6 -4 -9 -2 -8 3 2 5 -8 19 -22 32
l-25 22 30 -19 c17 -11 80 -46 140 -79z m-444 69 c13 -16 12 -17 -3 -4 -17 13
-22 21 -14 21 2 0 10 -8 17 -17z m39 -23 c0 -5 -2 -10 -4 -10 -3 0 -8 5 -11
10 -3 6 -1 10 4 10 6 0 11 -4 11 -10z m130 -76 c0 -8 -19 -13 -24 -6 -3 5 1 9
9 9 8 0 15 -2 15 -3z m51 -51 c13 -16 12 -17 -3 -4 -17 13 -22 21 -14 21 2 0
10 -8 17 -17z m64 -41 c-3 -3 -11 0 -18 7 -9 10 -8 11 6 5 10 -3 15 -9 12 -12z
m160 -94 c15 -15 -87 42 -105 59 -8 8 10 0 40 -17 30 -18 60 -37 65 -42z m55
-23 c17 -9 30 -18 30 -21 0 -4 -59 23 -69 32 -10 9 13 3 39 -11z m670 5 c0 -5
-5 -10 -11 -10 -5 0 -7 5 -4 10 3 6 8 10 11 10 2 0 4 -4 4 -10z m2960 0 c0 -5
-2 -10 -4 -10 -3 0 -8 5 -11 10 -3 6 -1 10 4 10 6 0 11 -4 11 -10z m-3524 -68
c-5 -4 -66 26 -66 33 0 3 16 -3 35 -12 19 -9 33 -18 31 -21z m39 -20 c-3 -3
-11 0 -18 7 -9 10 -8 11 6 5 10 -3 15 -9 12 -12z m40 -20 c-3 -3 -11 0 -18 7
-9 10 -8 11 6 5 10 -3 15 -9 12 -12z m81 -40 c-5 -4 -66 26 -66 33 0 3 16 -3
35 -12 19 -9 33 -18 31 -21z m142 -56 c1 -2 -4 -6 -13 -10 -9 -3 -14 -2 -10 3
3 5 -11 15 -30 21 -19 6 -37 16 -40 21 -5 7 83 -26 93 -35z m51 -21 c16 -8 31
-12 34 -9 3 3 8 1 12 -5 10 -17 -16 -12 -55 9 -41 22 -33 27 9 5z m2368 -51
c-3 -3 -12 -4 -19 -1 -8 3 -5 6 6 6 11 1 17 -2 13 -5z m210 -50 c-3 -3 -12 -4
-19 -1 -8 3 -5 6 6 6 11 1 17 -2 13 -5z m-77 -14 c-8 -5 -26 -9 -40 -9 -23 1
-23 2 5 9 43 11 52 11 35 0z"/>
<path d="M5150 7340 c-125 -35 -270 -209 -461 -552 -56 -101 -168 -321 -219
-433 -56 -121 -150 -337 -175 -400 -99 -254 -156 -409 -235 -640 -81 -235
-176 -505 -215 -610 -20 -55 -49 -136 -65 -180 -15 -44 -40 -111 -56 -150 -52
-129 -130 -244 -131 -192 0 6 -4 59 -8 117 -14 181 -11 368 10 625 2 22 7 92
10 155 4 63 9 133 11 155 2 22 4 117 5 210 1 242 -12 323 -61 378 -26 29 -34
32 -84 31 -46 0 -62 -5 -93 -30 -163 -130 -400 -662 -593 -1329 -53 -182 -86
-305 -181 -675 -104 -406 -157 -592 -210 -751 -57 -167 -72 -199 -98 -199 -16
0 -24 31 -57 210 -2 14 -6 34 -9 45 -2 11 -7 49 -10 85 -4 36 -9 76 -11 90
-26 160 -26 977 1 1305 1 22 6 87 10 145 3 58 8 119 10 135 2 17 7 62 10 100
8 88 14 148 20 205 3 25 8 68 10 95 6 59 22 185 35 275 10 70 15 106 30 215 6
39 17 106 25 150 7 44 16 94 18 110 7 41 26 154 33 190 35 193 121 554 183
774 55 194 53 233 -16 247 -57 11 -108 -70 -177 -280 -30 -91 -105 -377 -120
-456 -2 -14 -12 -58 -20 -97 -9 -40 -18 -87 -21 -105 -4 -18 -10 -51 -15 -73
-5 -22 -11 -53 -14 -70 -3 -16 -16 -88 -30 -160 -13 -71 -27 -152 -30 -180 -4
-27 -14 -97 -22 -155 -8 -58 -17 -123 -20 -145 -2 -22 -7 -51 -9 -65 -4 -23
-8 -57 -21 -170 -3 -25 -7 -56 -9 -70 -3 -14 -7 -52 -10 -85 -3 -33 -8 -71
-10 -85 -6 -34 -13 -137 -20 -305 -4 -77 -8 -169 -10 -205 -2 -36 -7 -135 -12
-220 -13 -243 -6 -685 12 -845 2 -16 6 -57 9 -90 9 -94 21 -179 41 -295 31
-178 86 -321 142 -370 28 -25 42 -30 85 -30 48 0 55 3 92 43 23 23 49 65 60
92 112 299 134 368 201 620 34 126 214 843 219 871 23 122 203 682 275 854 18
41 39 93 48 114 29 70 114 229 165 309 46 71 89 117 109 117 8 0 4 -324 -5
-370 -2 -14 -7 -70 -11 -125 -8 -123 -15 -217 -20 -270 -21 -217 -27 -544 -12
-660 20 -160 72 -269 138 -290 97 -31 214 116 342 430 45 109 138 381 216 630
23 72 60 177 82 235 23 58 49 128 59 155 180 498 283 741 455 1080 84 164 234
419 288 490 64 84 168 178 181 164 20 -22 29 -362 12 -446 -3 -12 -8 -54 -11
-94 -4 -40 -8 -80 -10 -88 -1 -9 -6 -41 -9 -71 -15 -122 -53 -369 -81 -530
-17 -97 -95 -574 -100 -610 -3 -25 -8 -56 -10 -70 -6 -30 -10 -60 -25 -165
-25 -172 -29 -206 -34 -250 -6 -48 -25 -197 -31 -245 -6 -45 -28 -222 -50
-405 -13 -104 -23 -224 -30 -360 -3 -49 -7 -117 -10 -150 -8 -100 -14 -195
-20 -295 -3 -52 -8 -117 -10 -145 -3 -27 -7 -90 -10 -140 -3 -49 -7 -121 -10
-160 -10 -133 -14 -190 -21 -300 -3 -60 -8 -126 -9 -145 -24 -252 -27 -578 -6
-627 30 -72 98 -78 119 -11 6 18 13 166 15 328 3 162 7 306 10 320 3 14 8 57
12 95 3 39 8 88 10 110 2 22 9 92 15 155 16 166 18 187 25 270 10 113 14 147
30 320 2 25 7 74 10 110 11 118 25 257 30 297 3 18 7 58 10 90 3 32 8 69 10
83 2 14 7 50 10 80 3 30 10 80 15 110 5 30 12 78 15 105 3 28 8 61 10 75 8 56
18 116 21 134 2 11 6 40 9 65 3 25 8 59 11 75 8 43 57 368 69 456 3 25 12 83
20 130 8 47 17 109 20 139 4 30 9 63 11 75 3 17 22 142 60 393 3 21 7 49 9 63
3 14 10 61 16 105 6 44 12 82 14 85 1 3 6 39 10 80 4 41 9 77 10 80 2 3 7 33
10 65 4 33 9 62 10 65 2 3 6 39 10 80 4 41 9 84 12 95 2 11 6 110 9 220 5 254
-12 354 -74 448 -38 58 -102 84 -162 67z"/>
<path d="M5760 5510 c-116 -21 -235 -142 -320 -323 -66 -140 -84 -223 -77
-357 3 -63 13 -140 22 -170 109 -357 444 -429 804 -172 118 84 392 377 441
471 34 66 11 129 -43 116 -27 -7 -58 -39 -154 -161 -226 -287 -429 -424 -632
-427 -102 -1 -160 47 -207 173 -24 65 -22 204 5 309 33 131 123 295 188 345
22 16 23 16 29 -1 12 -41 31 -68 57 -83 27 -14 29 -14 53 13 20 23 24 39 24
87 0 138 -68 202 -190 180z"/>
<path d="M1002 5383 c-18 -33 -23 -74 -38 -268 -12 -155 -6 -557 10 -665 3
-19 8 -57 11 -85 3 -27 12 -88 20 -135 8 -47 17 -103 21 -125 3 -22 8 -44 11
-48 3 -5 7 -23 10 -40 2 -18 11 -59 20 -92 8 -33 17 -69 19 -79 10 -51 101
-330 134 -411 7 -16 16 -39 21 -50 4 -11 27 -60 50 -110 24 -49 43 -92 43 -95
1 -6 53 -108 66 -130 5 -8 28 -49 52 -90 23 -41 49 -86 58 -100 8 -14 24 -40
35 -59 30 -50 172 -248 225 -314 111 -138 289 -323 416 -434 32 -28 70 -61 84
-73 56 -49 252 -191 257 -187 10 10 -9 27 -110 104 -190 142 -294 237 -487
442 -38 41 -192 233 -235 296 -27 39 -55 76 -62 83 -6 6 -15 21 -18 32 -3 11
-10 20 -15 20 -4 0 -13 12 -19 28 -6 15 -31 59 -55 97 -52 83 -200 376 -246
490 -18 44 -36 89 -41 100 -30 73 -111 336 -125 405 -3 14 -10 43 -16 65 -5
22 -12 49 -14 60 -2 11 -11 55 -20 98 -9 44 -17 91 -19 105 -3 15 -7 38 -10
52 -2 13 -7 52 -10 85 -3 33 -8 71 -10 85 -18 116 -25 520 -11 700 10 138 15
260 11 260 -3 0 -8 -8 -13 -17z"/>
<path d="M3483 2908 c-6 -7 -14 -61 -17 -119 -4 -58 -9 -117 -11 -130 -2 -13
-6 -46 -10 -74 -8 -67 -34 -165 -49 -186 -32 -46 -56 44 -60 224 -4 165 -29
197 -50 62 -12 -82 -56 -307 -61 -316 -13 -20 -34 -7 -45 27 -12 36 -15 234
-6 306 3 18 8 60 11 93 4 32 8 62 10 65 2 3 0 11 -3 17 -12 19 -32 -1 -37 -38
-15 -107 -20 -178 -20 -299 1 -114 4 -141 20 -175 14 -27 28 -41 43 -43 46 -7
73 42 88 156 6 50 15 61 20 24 16 -113 33 -152 69 -152 31 0 61 39 80 104 30
98 63 427 45 455 -5 9 -9 9 -17 -1z"/>
<path d="M4239 2906 c-35 -25 -83 -156 -95 -255 -2 -20 -6 -52 -9 -71 -8 -50
-9 -199 -2 -206 12 -13 27 8 27 39 1 26 3 29 10 15 22 -37 88 -1 136 74 19 30
31 38 67 43 53 8 72 19 62 35 -5 7 -22 9 -51 5 -41 -5 -44 -4 -44 18 0 13 -9
32 -21 43 -19 17 -23 17 -65 2 l-45 -16 14 22 c20 32 55 126 63 168 11 68 -12
110 -47 84z m14 -68 c-6 -38 -63 -181 -69 -175 -11 11 56 207 70 207 3 0 3
-15 -1 -32z m47 -246 c0 -23 -7 -31 -39 -45 -22 -10 -53 -32 -70 -49 -36 -37
-40 -23 -10 38 20 43 69 84 102 84 12 0 17 -8 17 -28z m-55 -112 c-16 -16 -34
-30 -39 -30 -12 1 49 60 61 60 4 0 -6 -13 -22 -30z"/>
<path d="M5170 2899 c-6 -11 -13 -56 -16 -102 -7 -105 -38 -204 -83 -263 -49
-64 -74 -80 -94 -60 -8 9 -14 24 -12 33 2 10 4 23 4 30 2 28 53 72 94 80 56
11 59 39 4 37 -95 -3 -171 -131 -121 -202 27 -39 70 -30 123 26 26 26 54 63
63 82 l18 35 1 -40 c1 -43 7 -151 12 -200 1 -19 8 -30 17 -30 11 0 15 12 14
50 -7 226 -4 358 8 420 7 39 12 80 10 92 -4 29 -29 37 -42 12z"/>
<path d="M6727 2903 c-3 -5 -15 -66 -27 -137 -38 -228 -24 -336 46 -336 48 0
152 127 125 153 -10 9 -14 8 -22 -5 -28 -50 -90 -117 -104 -112 -42 17 -40
182 5 379 5 22 10 46 10 53 0 13 -26 17 -33 5z"/>
<path d="M7464 2688 c-5 -7 -9 -26 -10 -43 -1 -40 -13 -75 -25 -75 -15 0 -10
-30 5 -36 13 -5 14 -40 11 -218 -3 -208 1 -246 24 -232 7 5 11 63 11 177 l0
169 23 0 c25 0 100 59 119 93 25 47 27 86 6 112 -22 29 -50 31 -102 10 l-36
-15 0 29 c0 33 -14 48 -26 29z m141 -79 c20 -31 -57 -139 -100 -139 -23 0 -23
0 -16 106 1 15 59 43 88 44 12 0 25 -5 28 -11z"/>
<path d="M3783 2647 c-78 -44 -102 -176 -37 -206 60 -27 129 -6 186 57 47 52
61 79 48 87 -6 4 -37 -21 -69 -54 -32 -34 -67 -61 -77 -62 -11 0 -27 -2 -36
-4 -26 -5 -63 28 -55 48 4 10 13 17 21 17 29 0 86 42 93 68 12 48 -28 75 -74
49z m35 -47 c-13 -20 -45 -36 -55 -27 -8 8 35 47 52 47 13 0 13 -3 3 -20z"/>
<path d="M5495 2649 c-32 -16 -67 -75 -72 -123 -5 -38 -2 -48 20 -70 52 -52
154 -23 221 63 30 39 38 71 17 71 -3 0 -22 -20 -41 -45 -35 -44 -76 -71 -115
-75 -41 -4 -56 1 -64 23 -7 20 -3 25 43 47 60 29 82 64 62 95 -15 23 -42 28
-71 14z m39 -44 c-7 -17 -35 -35 -55 -35 -7 0 -2 11 11 25 26 28 53 34 44 10z"/>
<path d="M5854 2635 c-10 -39 4 -135 24 -170 10 -16 28 -31 40 -33 18 -3 26 5
42 40 11 24 20 51 20 60 0 14 10 17 51 16 52 0 77 12 64 31 -4 7 -20 9 -40 5
-27 -5 -37 -2 -51 15 -29 33 -40 25 -54 -36 -7 -32 -17 -67 -22 -77 -10 -18
-11 -18 -21 -1 -5 10 -12 52 -16 93 -6 78 -25 106 -37 57z"/>
<path d="M6323 2647 c-47 -26 -84 -102 -75 -154 9 -55 90 -79 158 -47 42 20
114 100 114 125 0 30 -13 23 -62 -34 -53 -62 -105 -84 -147 -64 -37 18 -33 48
7 61 70 24 107 92 63 116 -24 13 -31 12 -58 -3z m37 -36 c0 -15 -30 -41 -46
-41 -11 0 -12 4 -4 19 13 26 50 41 50 22z"/>
<path d="M7066 2630 c-14 -17 -29 -44 -32 -58 -3 -15 -7 -33 -10 -40 -5 -17
23 -84 39 -94 37 -24 82 6 110 72 13 32 19 36 52 37 20 1 42 6 47 11 19 19 -1
30 -46 25 -43 -5 -46 -4 -67 31 -11 20 -25 36 -29 36 -5 0 -15 2 -23 6 -8 3
-25 -8 -41 -26z m48 -54 c33 -30 33 -60 0 -93 l-27 -27 -14 28 c-14 26 -13 61
2 99 9 22 9 22 39 -7z"/>
<path d="M7924 2635 c-40 -31 -68 -98 -59 -141 11 -61 94 -84 165 -45 45 24
114 105 107 125 -9 22 -28 11 -54 -29 -41 -62 -122 -96 -162 -68 -31 21 -25
41 16 58 74 31 101 76 67 109 -22 22 -44 20 -80 -9z m56 -25 c0 -14 -49 -44
-58 -35 -4 3 4 15 17 26 26 21 41 24 41 9z"/>
<path d="M8296 2643 c-2 -10 -6 -58 -8 -108 -3 -79 -1 -90 15 -93 12 -2 17 3
17 17 0 59 85 171 130 171 11 0 20 7 20 15 0 10 -10 15 -33 15 -25 0 -42 -9
-68 -36 l-34 -35 -5 32 c-6 36 -26 50 -34 22z"/>
<path d="M2570 710 c50 -39 368 -185 610 -280 74 -29 149 -59 167 -67 17 -7
36 -13 42 -13 6 0 19 -4 29 -10 86 -48 834 -243 977 -255 17 -1 46 -5 65 -9
41 -8 79 -13 174 -22 51 -5 67 -4 62 4 -4 7 -19 12 -34 12 -26 0 -320 43 -374
54 -16 3 -38 8 -50 10 -21 4 -273 62 -308 71 -345 91 -691 214 -1025 364 -33
15 -89 40 -125 56 -36 16 -98 46 -138 67 -79 41 -112 49 -72 18z"/>
</g>
</svg>
