<?xml version="1.0" standalone="no"?>
<!DOCTYPE svg PUBLIC "-//W3C//DTD SVG 20010904//EN"
 "http://www.w3.org/TR/2001/REC-SVG-20010904/DTD/svg10.dtd">
<svg version="1.0" xmlns="http://www.w3.org/2000/svg"
 width="1000.000000pt" height="1000.000000pt" viewBox="0 0 1000.000000 1000.000000"
 preserveAspectRatio="xMidYMid meet">
<metadata>
Created by potrace 1.14, written by Peter Selinger 2001-2017
</metadata>
<g transform="translate(0.000000,1000.000000) scale(0.100000,-0.100000)"
fill="#000000" stroke="none">
<path d="M4887 8334 c-1 -1 -40 -4 -87 -8 -47 -3 -103 -8 -125 -11 -90 -10
-141 -17 -155 -20 -8 -1 -31 -5 -50 -9 -19 -3 -57 -10 -85 -16 -27 -6 -61 -13
-75 -15 -14 -3 -36 -8 -50 -11 -14 -3 -33 -8 -42 -10 -17 -4 -32 -7 -75 -18
-261 -66 -627 -220 -878 -371 -572 -343 -1011 -817 -1293 -1398 -88 -179 -101
-210 -146 -330 -32 -85 -100 -305 -111 -362 -3 -11 -9 -40 -15 -65 -10 -48
-19 -92 -24 -125 -2 -11 -6 -33 -9 -50 -5 -27 -12 -73 -23 -160 -26 -209 -26
-635 0 -815 2 -14 7 -48 10 -75 6 -43 15 -97 33 -195 2 -14 18 -78 34 -144 85
-339 232 -678 416 -960 62 -94 169 -245 182 -256 4 -3 25 -27 46 -55 133 -167
363 -385 555 -526 149 -109 181 -131 186 -127 5 5 -19 24 -171 134 -200 145
-405 337 -546 511 -35 43 -66 80 -69 83 -9 8 -103 139 -147 205 -259 387 -463
931 -509 1360 -3 33 -8 69 -10 80 -27 137 -22 613 7 795 6 36 12 79 14 95 4
35 13 87 22 130 3 17 7 37 8 45 1 8 7 31 13 50 6 19 13 49 16 65 20 128 159
498 258 690 17 33 35 67 39 75 27 52 112 191 175 285 121 181 278 369 434 520
117 113 140 135 145 135 2 0 24 19 49 41 38 35 172 139 251 195 140 99 401
246 555 313 30 13 73 32 95 42 22 9 51 21 64 24 13 4 40 14 60 23 20 9 41 17
46 18 6 2 50 17 100 34 49 16 95 30 101 30 6 0 40 9 74 20 34 11 70 20 79 19
13 0 -126 -47 -189 -64 -274 -71 -744 -317 -1036 -541 -151 -116 -300 -250
-429 -386 -93 -97 -102 -108 -169 -193 -22 -27 -43 -52 -46 -55 -16 -12 -164
-227 -235 -339 -261 -419 -402 -822 -460 -1321 -25 -213 -14 -622 20 -760 1
-3 5 -27 10 -55 4 -27 9 -59 12 -70 2 -11 6 -31 8 -45 2 -14 7 -36 10 -50 4
-14 11 -43 15 -66 17 -82 78 -289 107 -364 3 -8 7 -21 9 -28 7 -34 93 -238
146 -345 32 -64 58 -119 58 -122 0 -3 13 -26 28 -52 16 -27 48 -82 72 -123 57
-98 203 -312 226 -331 22 -18 21 -15 -61 106 -76 111 -117 175 -111 175 2 0
28 -35 57 -77 65 -96 155 -216 200 -265 19 -21 50 -56 69 -79 32 -38 211 -219
243 -245 7 -6 37 -32 67 -59 99 -86 110 -95 115 -95 5 0 13 -7 73 -57 15 -13
32 -23 39 -23 6 0 13 -4 15 -8 4 -11 177 -127 258 -173 185 -105 416 -208 605
-269 55 -17 116 -38 136 -45 35 -13 214 -58 271 -69 15 -2 31 -7 35 -9 5 -3
32 -8 62 -12 30 -4 63 -9 75 -12 12 -2 47 -6 78 -8 31 -2 61 -6 65 -8 44 -28
741 -28 834 -1 9 2 34 6 55 9 51 5 274 51 333 69 25 7 48 14 51 14 6 1 11 2
150 47 137 44 421 166 500 214 8 6 57 35 109 66 295 178 527 380 806 700 124
141 325 438 412 605 85 165 185 440 209 575 5 29 9 51 23 121 30 150 43 309
42 504 -1 113 -3 223 -5 245 -2 22 -5 51 -6 65 l-2 25 -7 -24 c-4 -14 -4 -50
0 -80 8 -65 4 -425 -6 -491 -3 -25 -10 -76 -16 -115 -5 -38 -12 -86 -15 -105
-3 -19 -7 -41 -9 -48 -3 -7 -7 -34 -11 -60 -9 -68 -59 -255 -89 -337 -38 -99
-141 -304 -220 -435 -59 -98 -231 -347 -259 -376 -6 -6 -24 -28 -41 -49 -99
-127 -326 -350 -485 -476 -239 -190 -406 -292 -625 -384 -49 -20 -99 -41 -110
-46 -43 -19 -234 -78 -305 -95 -41 -9 -77 -20 -80 -23 -3 -3 -16 -7 -30 -8
-14 0 -41 -4 -60 -7 -114 -21 -141 -25 -194 -31 -32 -4 -68 -8 -80 -11 -12 -2
-46 -6 -76 -8 -162 -15 -249 -19 -382 -20 -81 -1 -150 -5 -154 -9 -4 -4 -12
-3 -18 2 -6 5 -58 11 -116 14 -58 4 -114 8 -125 10 -11 3 -47 8 -80 11 -80 10
-129 17 -135 21 -3 2 -26 6 -50 10 -25 3 -53 8 -62 11 -9 3 -25 6 -35 8 -36 7
-217 58 -257 73 -23 8 -49 16 -60 18 -10 3 -21 7 -25 10 -9 9 38 -1 89 -20 45
-16 248 -69 305 -79 267 -49 392 -60 668 -59 140 1 202 5 212 13 11 9 15 10
15 1 0 -7 3 -10 8 -8 4 3 36 8 72 12 65 6 92 10 153 21 57 10 92 15 105 16 6
1 12 4 12 7 0 3 15 7 33 7 39 1 266 61 282 74 7 6 14 7 17 4 3 -2 25 3 49 12
24 9 69 25 99 36 64 24 280 118 295 129 6 4 49 27 96 52 122 65 150 83 141 92
-4 5 -2 5 4 2 6 -4 37 11 68 33 31 22 61 40 66 40 4 0 10 3 12 8 2 4 26 23 53
41 28 19 52 37 55 40 3 4 30 26 60 50 124 100 223 192 320 298 90 97 145 166
144 179 -1 7 4 11 10 8 9 -3 113 130 125 161 2 5 7 12 10 15 10 8 71 98 71
104 0 3 15 29 34 58 45 72 126 227 126 243 0 7 7 18 15 25 8 6 14 15 13 18 -1
4 6 23 15 42 8 19 13 39 10 44 -8 12 -40 -33 -83 -118 -50 -100 -237 -378
-305 -452 -5 -7 -24 -29 -42 -50 -18 -22 -43 -52 -57 -68 -14 -16 -23 -33 -20
-38 3 -4 1 -7 -4 -6 -5 2 -66 -53 -135 -122 -69 -69 -144 -141 -168 -160 -23
-19 -47 -40 -53 -45 -6 -6 -28 -23 -48 -39 -21 -16 -35 -33 -31 -39 3 -5 2 -7
-4 -4 -5 4 -39 -15 -74 -40 -81 -59 -248 -167 -272 -176 -11 -4 -15 -12 -11
-18 4 -7 3 -9 -3 -6 -10 6 -156 -63 -177 -84 -6 -5 -18 -9 -27 -9 -10 0 -19
-3 -21 -8 -12 -29 -323 -120 -518 -151 -36 -6 -76 -13 -90 -16 -14 -3 -41 -8
-60 -9 -19 -2 -66 -7 -105 -11 -38 -4 -74 -10 -80 -13 -7 -3 -7 -1 0 6 6 5 29
13 52 16 94 12 286 60 423 106 141 46 169 57 275 103 70 31 233 114 275 141
19 13 67 43 105 67 163 102 432 326 429 356 -1 7 2 10 7 7 17 -10 178 174 305
348 136 186 354 607 354 685 0 40 -22 14 -55 -64 -16 -38 -42 -90 -57 -116
-15 -26 -28 -52 -28 -57 0 -5 -6 -15 -12 -22 -7 -7 -24 -33 -37 -58 -14 -25
-52 -85 -85 -133 -34 -49 -65 -96 -71 -105 -5 -10 -13 -19 -16 -22 -4 -3 -24
-28 -46 -57 -42 -56 -151 -179 -220 -248 -23 -24 -39 -46 -35 -50 4 -3 2 -5
-4 -3 -6 2 -36 -20 -66 -47 -121 -113 -338 -272 -488 -358 -62 -36 -300 -153
-327 -161 -13 -4 -23 -12 -23 -18 0 -6 -3 -9 -6 -5 -3 3 -36 -6 -72 -20 -81
-30 -273 -93 -302 -97 -3 -1 -11 -5 -17 -9 -7 -5 -13 -6 -13 -4 0 2 -26 -2
-57 -10 -32 -8 -76 -16 -98 -19 -21 -3 -42 -7 -45 -9 -4 -2 -29 -7 -56 -10
-27 -3 -62 -8 -79 -10 -121 -16 -184 -20 -360 -20 -180 0 -335 7 -390 18 -11
3 -42 8 -70 11 -124 18 -131 19 -210 39 -33 9 -71 18 -85 21 -14 3 -50 13 -80
22 -30 9 -65 17 -77 18 -12 0 -19 3 -17 5 8 8 -179 71 -190 64 -6 -3 -8 -2 -3
2 10 11 -100 58 -115 49 -6 -4 -8 -3 -5 3 3 5 -17 20 -46 33 -42 20 -187 98
-282 154 -60 35 -243 164 -265 186 -3 3 -32 27 -65 54 -33 27 -65 56 -72 64
-6 8 -17 11 -24 6 -7 -4 -10 -3 -6 3 3 5 -35 50 -86 100 -51 49 -112 114 -137
143 -25 29 -50 58 -55 64 -33 36 -119 152 -163 221 -29 44 -56 85 -62 92 -5 7
-10 15 -10 18 0 3 -17 36 -38 73 -21 37 -44 76 -50 87 -9 17 -70 147 -102 220
-20 44 -42 102 -56 145 -8 25 -18 52 -21 60 -3 8 -7 21 -9 27 -1 7 -12 42 -23
77 -20 64 -29 97 -30 124 -1 7 -5 11 -9 8 -4 -2 -7 8 -6 22 0 15 -2 38 -6 52
-4 14 -13 45 -21 70 -7 25 -18 50 -24 55 -7 6 -18 49 -24 95 -6 47 -14 99 -17
115 -20 111 -32 478 -18 565 3 19 8 51 10 70 8 49 12 71 18 100 4 14 9 39 12
55 20 116 104 390 147 480 21 46 17 26 -13 -60 -11 -32 -22 -68 -25 -80 -2
-11 -11 -47 -20 -79 -9 -33 -14 -68 -12 -78 3 -10 1 -16 -3 -13 -5 3 -14 -28
-20 -67 -7 -40 -14 -82 -16 -93 -2 -11 -6 -37 -9 -58 -3 -20 -7 -56 -10 -80
-14 -99 -21 -228 -19 -331 2 -130 14 -307 20 -318 3 -5 7 -34 9 -65 3 -46 38
-232 59 -313 22 -87 28 -109 37 -135 6 -16 15 -39 19 -50 5 -11 14 -38 21 -60
7 -22 19 -56 27 -75 9 -19 17 -41 18 -48 5 -27 186 -382 195 -382 5 0 9 -5 9
-11 0 -12 96 -162 137 -214 13 -16 31 -39 39 -50 48 -64 78 -94 87 -88 6 3 7
1 3 -6 -8 -13 9 -33 136 -159 113 -113 154 -152 160 -152 4 0 22 -15 41 -32
18 -18 44 -40 56 -48 21 -14 30 -21 78 -60 10 -9 36 -26 58 -40 22 -13 42 -27
45 -30 14 -18 133 -79 142 -74 6 4 8 2 4 -4 -13 -22 310 -169 510 -232 54 -17
113 -35 129 -40 17 -5 46 -12 65 -15 19 -3 51 -10 70 -15 19 -4 69 -14 110
-20 41 -6 86 -14 100 -16 88 -15 391 -24 432 -13 27 8 16 10 -72 14 -101 5
-252 16 -280 19 -14 2 -50 7 -80 11 -30 4 -57 8 -60 10 -3 2 -26 6 -50 10 -25
3 -70 12 -100 20 -30 8 -66 16 -80 19 -14 2 -44 11 -68 20 -23 8 -46 15 -50
16 -4 0 -29 8 -57 17 -27 10 -52 18 -55 18 -3 1 -18 7 -35 14 -16 7 -46 19
-66 26 -37 13 -268 126 -304 148 -10 7 -64 40 -118 75 -54 34 -102 62 -107 62
-6 0 -10 4 -10 8 0 5 -22 24 -50 43 -27 19 -50 37 -50 42 0 4 -5 7 -10 7 -6 0
-18 8 -28 18 -10 9 -36 32 -57 50 -22 19 -68 60 -102 92 -33 32 -64 55 -68 52
-4 -4 -5 -2 -3 4 2 7 -18 34 -44 60 -39 40 -117 133 -181 214 -81 103 -188
280 -269 445 -38 77 -73 148 -78 157 -6 10 -10 26 -10 36 0 10 -4 22 -9 27
-20 21 -113 334 -135 455 -3 19 -8 44 -10 55 -4 22 -17 109 -22 140 -12 85
-19 226 -18 365 1 278 7 320 86 600 6 19 11 45 12 57 0 11 4 20 7 18 9 -6 40
105 33 117 -4 6 -2 8 3 5 6 -4 20 20 33 56 57 159 182 413 283 572 49 77 174
255 186 265 4 3 26 30 51 60 66 80 72 87 102 116 15 15 25 31 21 37 -3 6 -2 7
3 4 6 -3 38 23 73 59 35 35 66 64 69 64 2 0 17 12 31 28 15 15 45 40 66 57 63
46 145 127 145 142 0 17 -43 -4 -120 -60 -30 -22 -47 -31 -37 -20 9 11 14 23
10 28 -5 4 -3 5 4 1 11 -6 153 87 161 106 2 5 8 8 12 8 5 0 33 14 62 32 59 35
171 92 211 107 15 6 27 15 27 21 0 6 3 9 8 7 12 -8 163 59 155 68 -5 4 -2 5 5
1 16 -9 112 27 167 63 38 25 124 60 190 76 17 5 35 9 40 11 59 17 167 42 219
50 22 3 43 7 46 9 3 1 32 6 65 10 32 3 62 8 65 10 12 8 231 19 365 19 196 0
439 -22 560 -51 11 -2 31 -6 45 -8 14 -2 26 -4 28 -5 1 -1 5 -3 10 -4 9 -3
125 -29 132 -31 36 -7 271 -87 325 -110 107 -47 128 -54 139 -48 6 3 8 3 4 -1
-4 -5 39 -32 95 -61 158 -81 274 -150 363 -216 29 -21 58 -39 64 -39 5 0 10
-4 10 -8 0 -11 92 -78 103 -74 4 1 6 -2 5 -6 -2 -5 24 -31 57 -59 33 -27 76
-66 95 -86 19 -20 41 -37 48 -37 6 0 12 -5 12 -11 0 -6 21 -33 48 -59 258
-260 505 -640 637 -980 20 -52 40 -99 43 -105 4 -5 7 -14 8 -20 3 -17 52 -159
65 -188 28 -61 45 -12 30 84 -11 66 -62 238 -81 271 -6 10 -10 22 -10 28 0 6
-10 32 -21 58 -12 26 -32 72 -46 102 -69 156 -166 324 -290 500 -61 87 -184
231 -283 330 -160 161 -302 285 -314 273 -3 -3 -6 -2 -6 4 0 38 -418 291 -638
386 -161 70 -399 150 -420 142 -7 -2 -11 -1 -8 3 4 7 -121 44 -159 47 -5 1
-23 4 -40 8 -42 9 -94 18 -131 21 -17 2 -35 5 -40 8 -5 3 -43 9 -84 12 -41 4
-97 9 -125 12 -119 13 -477 5 -580 -13 -16 -2 -46 -6 -65 -8 -50 -5 -112 -15
-130 -21 -8 -3 -33 -8 -55 -11 -22 -3 -48 -9 -57 -14 -10 -6 -18 -8 -18 -5 0
3 -20 -1 -45 -8 -25 -8 -45 -12 -45 -10 0 2 -19 -4 -42 -12 -24 -9 -51 -17
-61 -19 -29 -6 -60 -15 -82 -24 -11 -5 -47 -18 -80 -31 -163 -60 -365 -154
-480 -223 -68 -41 -249 -159 -255 -167 -3 -4 -26 -21 -52 -39 -27 -17 -48 -36
-48 -41 0 -5 -8 -11 -17 -14 -10 -4 -39 -25 -65 -49 -25 -23 -61 -54 -78 -69
-19 -16 -29 -32 -24 -39 4 -8 3 -9 -4 -5 -13 8 -196 -171 -305 -299 -110 -129
-117 -137 -117 -141 0 -3 -5 -10 -10 -17 -46 -55 -70 -93 -65 -104 2 -8 1 -11
-4 -8 -10 6 -81 -94 -81 -114 0 -6 -5 -11 -11 -11 -6 0 -2 15 10 33 11 17 28
46 37 62 34 61 148 229 190 281 24 30 42 54 40 54 -3 0 8 13 22 28 15 15 47
51 70 80 49 59 265 274 313 312 18 14 48 39 68 55 20 17 40 33 46 37 5 4 24
18 40 31 17 13 58 43 92 66 35 24 60 48 56 54 -4 6 -1 7 6 3 7 -5 29 3 52 18
22 15 55 36 74 46 19 11 52 30 73 41 95 55 311 156 370 174 12 3 22 10 22 14
0 3 8 7 18 7 9 1 54 15 100 32 45 16 105 35 132 42 27 7 48 15 46 18 -2 4 8 7
22 8 15 0 79 12 142 26 63 15 135 30 160 33 25 4 48 12 52 18 6 9 8 9 8 0 0
-7 6 -11 13 -8 106 35 617 40 872 10 56 -7 203 -31 247 -40 114 -24 209 -48
293 -74 55 -17 109 -34 120 -36 24 -6 114 -40 172 -66 24 -11 47 -19 53 -19 6
0 21 -6 33 -14 12 -7 51 -26 87 -42 36 -15 77 -36 93 -47 15 -10 27 -16 27
-12 0 3 17 -6 37 -20 21 -14 41 -25 45 -25 4 0 27 -13 51 -30 25 -16 50 -30
56 -30 6 0 11 -4 11 -10 0 -5 4 -10 9 -10 11 0 170 -107 206 -138 14 -12 27
-22 30 -22 3 0 18 -11 33 -24 75 -66 126 -105 134 -100 5 3 7 1 6 -4 -2 -5 27
-37 64 -71 61 -57 160 -156 252 -254 20 -21 36 -42 36 -47 0 -5 4 -10 8 -12
20 -8 220 -282 273 -374 65 -112 129 -230 129 -237 0 -5 5 -5 12 -1 7 4 8 3 4
-4 -4 -7 6 -38 22 -69 32 -62 95 -211 107 -253 4 -14 11 -29 15 -35 4 -5 13
-34 20 -62 6 -29 15 -53 19 -53 4 0 7 -8 8 -17 0 -10 17 -81 38 -158 41 -157
42 -163 50 -220 4 -22 8 -53 11 -70 3 -16 7 -46 9 -65 2 -19 6 -51 9 -70 3
-19 7 -61 11 -94 11 -118 33 -90 29 38 -1 45 -5 97 -7 116 -3 19 -8 58 -12 87
-8 66 -58 300 -79 373 -9 30 -19 66 -22 80 -5 25 -29 97 -44 135 -5 11 -23 58
-40 103 -17 46 -35 91 -39 100 -5 10 -33 67 -62 127 -29 61 -56 112 -59 115
-3 3 -12 20 -19 38 -8 17 -16 32 -20 32 -3 0 -12 12 -18 28 -12 25 -91 153
-110 177 -4 6 -21 30 -38 55 -16 25 -36 51 -43 58 -7 8 -25 30 -40 50 -15 21
-32 42 -38 48 -5 6 -26 31 -45 54 -69 86 -202 219 -212 213 -5 -3 -7 -2 -4 4
5 8 -114 133 -127 133 -3 0 -25 19 -50 41 -25 23 -59 51 -75 63 -16 12 -62 46
-102 76 -73 55 -230 160 -259 174 -8 4 -33 18 -55 31 -67 40 -355 181 -436
213 -158 63 -409 141 -495 155 -10 1 -24 6 -31 10 -7 4 -31 10 -55 12 -24 3
-74 11 -111 20 -37 8 -71 14 -75 13 -4 -1 -25 1 -47 5 -22 4 -67 9 -100 12
-33 3 -85 7 -115 10 -30 3 -118 6 -195 6 -406 3 -776 -62 -1164 -204 -68 -25
-127 -49 -130 -54 -3 -4 -10 -8 -16 -9 -31 -2 -348 -161 -389 -195 -6 -5 -47
-32 -91 -60 -73 -47 -214 -149 -241 -174 -6 -5 -30 -26 -55 -45 -71 -57 -309
-293 -309 -307 0 -7 -4 -13 -9 -13 -20 0 -195 -231 -291 -383 -35 -56 -40 -71
-29 -78 11 -8 10 -9 -5 -7 -13 2 -26 -12 -48 -52 -38 -70 -92 -174 -93 -180
-1 -3 -8 -18 -15 -35 -7 -16 -14 -32 -15 -35 -1 -3 -13 -30 -27 -62 -14 -31
-29 -67 -33 -80 -4 -12 -13 -36 -20 -53 -13 -31 -62 -187 -89 -285 -21 -75
-57 -290 -51 -300 3 -5 1 -11 -4 -14 -8 -5 -18 -86 -27 -216 -12 -175 4 -680
22 -712 2 -3 7 -30 9 -60 6 -59 12 -95 30 -178 18 -83 42 -181 50 -202 5 -12
2 -18 -6 -18 -7 0 -10 2 -7 5 3 3 -3 36 -14 73 -27 94 -65 250 -72 295 -17
107 -23 142 -26 142 -1 0 -3 14 -5 30 -1 17 -6 71 -11 120 -4 50 -8 180 -9
290 0 241 10 373 40 545 1 8 6 35 10 60 4 25 9 52 10 60 8 39 57 220 71 263 9
26 13 55 10 63 -3 8 -2 13 3 9 7 -4 29 48 55 130 1 6 13 32 24 58 12 27 22 50
22 52 0 2 16 39 36 82 20 43 37 84 37 91 0 6 3 12 7 12 4 0 21 28 39 63 18 34
42 78 53 97 12 19 26 44 32 55 14 24 129 198 136 205 3 3 25 32 49 65 139 189
376 430 556 566 30 23 55 45 55 50 0 5 3 8 8 7 10 -4 102 63 102 74 0 5 4 7
10 3 5 -3 18 3 30 15 11 11 22 20 25 20 3 0 30 16 60 34 30 19 72 44 95 56 24
12 38 25 34 32 -4 6 -3 8 4 4 12 -7 386 172 451 217 41 28 43 31 23 38 -23 9
-39 7 -132 -16 -107 -26 -394 -160 -383 -178 3 -6 1 -7 -5 -3 -13 8 -115 -47
-107 -57 3 -4 2 -5 -1 -2 -14 10 -184 -102 -359 -237 -5 -4 -24 -20 -42 -35
-17 -16 -46 -39 -64 -53 -73 -55 -309 -298 -394 -405 -22 -27 -45 -55 -50 -61
-13 -13 -139 -197 -177 -257 -86 -136 -200 -357 -193 -374 2 -8 1 -12 -4 -9
-8 5 -68 -129 -106 -239 -9 -27 -21 -59 -26 -70 -16 -39 -81 -280 -93 -350 -3
-16 -8 -40 -10 -51 -16 -81 -26 -152 -31 -216 -1 -25 -5 -50 -8 -55 -21 -34
-22 -562 -1 -653 3 -14 8 -53 10 -88 2 -35 10 -102 19 -150 16 -94 14 -119 -4
-47 -16 63 -34 59 -26 -7 9 -72 14 -107 24 -148 5 -19 12 -48 15 -63 4 -18 11
-25 19 -21 9 5 9 4 1 -5 -15 -16 0 -74 63 -261 44 -131 71 -200 82 -210 8 -7
13 -40 7 -40 -18 0 -154 384 -182 513 -3 12 -7 33 -10 46 -3 14 -7 28 -10 32
-2 4 -11 45 -19 91 -8 46 -17 92 -19 103 -6 29 -17 114 -21 155 -2 19 -7 71
-12 115 -15 155 -7 596 12 680 3 11 7 41 10 67 3 39 14 98 51 285 2 12 9 34
14 48 5 14 7 25 5 25 -2 0 0 12 6 28 6 15 13 38 15 52 3 14 25 84 49 156 47
137 55 173 31 139 -19 -29 -105 -283 -132 -395 -11 -47 -54 -260 -59 -290 -2
-19 -7 -62 -11 -95 -3 -33 -8 -62 -9 -65 -6 -10 -18 -269 -17 -365 0 -102 11
-304 17 -336 2 -10 6 -44 10 -76 3 -32 19 -125 36 -208 16 -82 32 -161 35
-175 l4 -25 -10 23 c-5 13 -12 38 -15 55 -3 18 -10 46 -14 62 -5 17 -13 48
-17 70 -4 22 -8 45 -10 50 -1 6 -5 28 -9 50 -3 22 -10 65 -15 95 -10 60 -15
98 -27 210 -8 85 -9 484 0 545 3 22 8 69 12 105 3 36 8 72 10 80 2 8 6 33 10
55 12 83 56 288 65 306 6 10 9 22 9 26 -1 4 1 15 4 23 3 8 15 44 25 80 62 205
192 492 316 694 65 107 204 306 248 358 13 14 39 46 58 69 120 147 254 280
449 445 99 84 263 200 391 276 309 184 580 302 900 393 52 15 100 33 105 39 8
11 44 20 170 42 47 9 102 17 130 19 17 2 68 7 115 11 100 11 589 11 675 1 110
-12 150 -17 175 -22 14 -2 43 -7 65 -10 42 -5 71 -11 115 -20 14 -3 34 -7 45
-9 175 -35 516 -142 674 -213 20 -8 53 -23 75 -32 21 -9 113 -53 204 -98 91
-45 168 -80 170 -78 13 12 -314 182 -458 238 -182 71 -253 97 -266 97 -8 0
-22 4 -32 9 -29 16 -186 61 -219 63 -5 0 -18 4 -31 9 -12 5 -33 11 -45 13 -12
3 -65 14 -117 25 -52 11 -117 22 -145 25 -27 4 -61 8 -75 11 -35 6 -102 14
-185 21 -62 5 -472 13 -478 8z m-574 -111 c-7 -2 -19 -2 -25 0 -7 3 -2 5 12 5
14 0 19 -2 13 -5z m-2425 -3949 c-3 -14 -5 -12 -10 9 -3 19 -2 25 4 19 6 -6 8
-18 6 -28z m16 -40 c3 -8 2 -12 -4 -9 -6 3 -10 10 -10 16 0 14 7 11 14 -7z
m26 -109 c0 -5 -5 -3 -10 5 -5 8 -10 20 -10 25 0 6 5 3 10 -5 5 -8 10 -19 10
-25z m-74 -42 c4 -16 8 -30 9 -33 17 -55 26 -93 23 -95 -2 -2 -15 32 -29 76
-14 43 -22 79 -18 79 4 0 10 -12 15 -27z m91 -45 c-3 -8 -6 -5 -6 6 -1 11 2
17 5 13 3 -3 4 -12 1 -19z m26 -65 c9 -24 15 -43 12 -43 -6 0 -35 69 -35 83 0
15 5 7 23 -40z m137 -37 c0 -12 -5 -7 -19 24 -11 24 -11 24 3 6 9 -11 16 -24
16 -30z m-186 -76 c5 -20 3 -19 -8 5 -7 17 -16 41 -20 55 -5 20 -3 19 8 -5 7
-16 16 -41 20 -55z m204 15 c-3 -3 -9 2 -12 12 -6 14 -5 15 5 6 7 -7 10 -15 7
-18z m-118 -13 c0 -15 -2 -15 -10 -2 -13 20 -13 33 0 25 6 -3 10 -14 10 -23z
m20 -57 c0 -5 -5 -3 -10 5 -5 8 -10 20 -10 25 0 6 5 3 10 -5 5 -8 10 -19 10
-25z m-81 -15 c0 -10 -3 -8 -9 5 -12 27 -12 43 0 25 5 -8 9 -22 9 -30z m107
-47 c7 -21 12 -39 10 -41 -4 -3 -36 73 -36 85 0 15 15 -10 26 -44z m-63 -55
c9 -21 14 -38 11 -38 -5 0 -34 64 -34 76 0 12 7 0 23 -38z m259 -353 c13 -22
25 -42 28 -45 3 -3 14 -22 24 -42 11 -21 23 -38 28 -38 4 0 8 -6 8 -12 1 -20
136 -203 148 -201 6 2 9 -3 6 -10 -2 -7 8 -27 23 -45 16 -17 38 -44 50 -59 12
-15 47 -55 77 -88 31 -33 56 -64 56 -70 0 -5 -23 15 -51 45 -27 30 -55 54 -60
52 -6 -1 -8 2 -4 7 3 6 -14 30 -37 55 -40 42 -149 184 -172 226 -23 39 -90
145 -95 150 -3 3 -26 44 -51 92 -24 48 -48 84 -54 81 -5 -3 -6 -1 -2 5 4 7 -8
42 -27 79 -43 84 -67 138 -67 150 0 4 34 -59 74 -142 41 -82 85 -168 98 -190z
m-202 234 c0 -6 -4 -7 -10 -4 -5 3 -10 11 -10 16 0 6 5 7 10 4 6 -3 10 -11 10
-16z m14 -35 c3 -8 2 -12 -4 -9 -6 3 -10 10 -10 16 0 14 7 11 14 -7z m178
-318 c7 4 8 2 4 -5 -9 -13 -26 -5 -25 12 0 9 2 8 6 -1 2 -6 10 -9 15 -6z m483
-495 c-3 -5 18 -32 46 -60 29 -28 49 -54 46 -58 -4 -3 -7 -1 -7 5 0 6 -9 14
-21 17 -11 4 -18 9 -16 11 3 3 -11 20 -30 39 -29 28 -37 55 -17 55 3 0 3 -4
-1 -9z m187 -194 c11 -10 18 -20 16 -22 -4 -4 -98 84 -98 92 0 6 23 -14 82
-70z m103 -88 c11 -12 -1 -5 -27 16 -27 22 -48 41 -48 43 0 7 56 -36 75 -59z
m46 -36 c13 -16 12 -17 -3 -4 -17 13 -22 21 -14 21 2 0 10 -8 17 -17z m326
-78 c0 -8 -4 -12 -9 -9 -5 3 -6 10 -3 15 9 13 12 11 12 -6z m-206 -12 c12 -16
12 -17 -2 -6 -9 7 -20 9 -24 5 -5 -4 -5 -1 -1 6 9 16 11 15 27 -5z m244 -13
c3 -6 -1 -7 -9 -4 -18 7 -21 14 -7 14 6 0 13 -4 16 -10z m400 -190 c240 -96
380 -139 590 -184 124 -26 200 -39 248 -40 15 -1 27 -3 27 -6 0 -3 10 -5 23
-6 12 0 69 -4 127 -8 187 -13 210 -13 216 -5 3 5 13 5 22 1 26 -13 340 -1 363
14 5 3 9 0 9 -5 0 -6 -8 -11 -17 -12 -10 0 -29 -2 -43 -4 -178 -23 -555 -23
-689 0 -14 3 -52 7 -85 10 -34 4 -81 11 -106 16 -25 6 -56 12 -70 15 -55 9
-124 24 -171 38 -27 8 -52 15 -55 14 -2 0 -17 4 -32 10 -15 6 -74 25 -132 43
-57 18 -121 41 -142 51 -20 10 -42 18 -48 18 -5 0 -18 4 -28 10 -9 5 -64 31
-122 59 -105 50 -270 140 -270 147 0 2 48 -21 108 -52 59 -30 184 -86 277
-124z m-500 102 c-3 -3 -11 0 -18 7 -9 10 -8 11 6 5 10 -3 15 -9 12 -12z m150
-90 c-3 -3 -11 0 -18 7 -9 10 -8 11 6 5 10 -3 15 -9 12 -12z m30 -1 c-3 -6 3
-14 12 -20 10 -6 13 -11 7 -11 -15 0 -36 25 -27 33 10 10 15 8 8 -2z m60 -41
c3 -6 -1 -7 -9 -4 -18 7 -21 14 -7 14 6 0 13 -4 16 -10z m159 -78 c3 -5 -1 -9
-9 -9 -8 0 -15 4 -15 9 0 4 4 8 9 8 6 0 12 -4 15 -8z m101 -42 c3 -6 -1 -7 -9
-4 -18 7 -21 14 -7 14 6 0 13 -4 16 -10z m99 -39 c4 -5 -3 -7 -14 -4 -23 6
-26 13 -6 13 8 0 17 -4 20 -9z m1533 3 c-3 -3 -12 -4 -19 -1 -8 3 -5 6 6 6 11
1 17 -2 13 -5z m-1477 -24 c18 -12 2 -12 -25 0 -13 6 -15 9 -5 9 8 0 22 -4 30
-9z m1487 -32 c-3 -8 -6 -5 -6 6 -1 11 2 17 5 13 3 -3 4 -12 1 -19z m40 6 c-3
-3 -12 -4 -19 -1 -8 3 -5 6 6 6 11 1 17 -2 13 -5z"/>
<path d="M5055 6574 c-45 -30 -49 -34 -106 -105 -90 -110 -207 -319 -342 -609
-66 -143 -150 -361 -249 -645 -185 -534 -218 -624 -257 -699 -20 -38 -41 -71
-47 -73 -8 -3 -14 14 -17 44 -7 64 1 447 12 548 5 44 8 168 7 275 -1 162 -4
200 -18 226 -33 60 -100 64 -156 11 -97 -92 -230 -380 -345 -747 -62 -197 -84
-277 -212 -775 -77 -302 -147 -496 -170 -473 -6 6 -33 133 -40 194 -4 27 -8
60 -11 74 -22 132 -22 724 1 965 2 22 6 76 10 120 3 44 7 96 10 115 2 19 7 62
10 95 4 33 8 74 10 90 2 17 9 68 15 115 5 47 12 103 15 125 30 230 100 583
166 832 52 198 56 222 37 241 -30 30 -69 9 -101 -53 -53 -106 -147 -483 -201
-810 -14 -81 -18 -108 -31 -210 -3 -16 -11 -77 -19 -135 -30 -209 -40 -320
-51 -550 -4 -80 -9 -176 -11 -215 -6 -93 -6 -413 1 -495 14 -181 25 -272 50
-410 11 -55 46 -142 71 -177 29 -38 72 -50 111 -29 73 37 144 247 304 896 109
442 195 710 294 914 53 111 134 236 152 236 20 0 20 -107 -3 -367 -2 -29 -6
-77 -8 -105 -28 -317 -24 -494 11 -597 20 -60 42 -89 75 -96 96 -22 191 146
338 600 80 247 235 665 297 802 12 28 23 54 23 57 0 20 171 355 239 468 78
130 167 238 196 238 32 0 32 -218 0 -451 -9 -63 -18 -132 -21 -154 -3 -22 -17
-105 -30 -185 -14 -80 -34 -199 -44 -265 -10 -66 -21 -133 -24 -150 -8 -44
-24 -154 -30 -200 -3 -22 -15 -110 -26 -195 -11 -85 -24 -186 -30 -225 -5 -38
-12 -95 -15 -125 -3 -30 -8 -66 -10 -80 -4 -24 -8 -77 -20 -265 -3 -49 -8
-115 -10 -145 -3 -30 -7 -95 -10 -145 -4 -49 -8 -112 -10 -140 -2 -27 -7 -99
-10 -160 -4 -60 -8 -126 -10 -145 -2 -19 -6 -87 -10 -150 -4 -63 -9 -133 -11
-155 -2 -22 -4 -84 -4 -137 -1 -108 15 -162 49 -171 42 -11 49 22 52 226 1
103 6 212 10 241 4 29 10 88 13 132 4 43 9 97 11 119 7 65 19 194 31 330 19
227 52 511 79 695 2 14 13 90 25 170 11 80 25 170 30 200 5 30 12 73 15 95 3
22 12 83 20 135 8 52 16 111 19 130 3 19 14 94 25 165 11 72 23 153 26 180 4
28 8 57 10 65 2 8 6 33 9 55 6 52 19 149 21 155 1 3 5 34 9 70 4 36 10 79 13
95 9 57 10 276 1 328 -27 154 -109 215 -203 151z"/>
<path d="M5464 5325 c-106 -55 -211 -244 -219 -394 -5 -112 29 -228 89 -298
64 -76 190 -104 312 -68 115 33 271 158 400 319 75 94 89 125 68 155 -22 31
-53 11 -122 -78 -161 -208 -310 -311 -446 -311 -83 0 -139 67 -153 181 -12
101 57 296 129 366 31 30 34 31 35 12 1 -12 10 -30 19 -40 52 -58 97 37 60
126 -26 61 -89 72 -172 30z"/>
<path d="M2269 5253 c0 -5 -2 -17 -5 -28 -18 -87 -25 -442 -11 -575 14 -135
20 -170 28 -175 4 -3 6 -12 3 -19 -4 -11 9 -75 51 -256 6 -28 56 -185 65 -207
6 -13 14 -33 19 -45 127 -322 313 -611 536 -833 140 -139 276 -254 355 -300
32 -18 -27 39 -85 82 -121 91 -281 242 -353 333 -20 25 -41 50 -47 55 -18 16
-131 178 -183 263 -145 233 -267 549 -322 837 -23 120 -24 125 -36 235 -10 91
-12 455 -2 563 4 46 3 77 -3 77 -5 0 -9 -3 -10 -7z"/>
<path d="M4559 3582 c-2 -104 0 -225 6 -230 3 -4 10 -1 14 6 6 10 13 10 34 -1
76 -40 150 49 110 132 -10 19 -27 34 -50 42 -30 10 -39 9 -62 -9 l-27 -20 0
49 c1 30 -4 51 -11 54 -9 3 -13 -5 -14 -23z m138 -106 c14 -29 14 -39 3 -65
-26 -64 -112 -48 -115 21 -3 46 24 78 66 78 24 0 32 -7 46 -34z"/>
<path d="M5160 3560 c0 -28 -2 -50 -5 -50 -3 0 -16 7 -29 15 -50 33 -116 -15
-116 -85 0 -68 68 -114 124 -85 15 8 28 10 31 4 18 -27 23 4 22 116 -1 91 -5
126 -14 129 -10 4 -13 -8 -13 -44z m-18 -67 c27 -24 24 -87 -4 -107 -29 -21
-51 -20 -77 2 -28 22 -31 75 -6 102 22 24 62 26 87 3z"/>
<path d="M6156 3603 c-8 -8 -8 -216 0 -237 4 -10 18 -16 35 -16 33 0 39 15 9
23 -18 5 -20 14 -20 115 0 101 -6 132 -24 115z"/>
<path d="M3816 3578 c21 -69 94 -223 106 -226 9 -2 23 18 37 53 13 31 27 53
31 48 4 -4 15 -30 25 -56 12 -31 23 -47 33 -45 12 3 112 217 112 241 0 40 -56
-61 -103 -187 -9 -24 -11 -22 -35 39 -20 50 -20 51 -1 90 10 21 19 45 19 52 0
26 -17 12 -36 -29 l-18 -41 -19 41 c-10 23 -22 42 -28 42 -11 0 -6 -21 17 -78
12 -30 12 -39 -7 -83 -12 -27 -24 -47 -28 -45 -3 2 -24 50 -46 105 -22 56 -46
101 -53 101 -9 0 -11 -7 -6 -22z"/>
<path d="M4315 3528 c-87 -47 -67 -164 31 -182 25 -5 88 30 79 44 -3 5 -19 1
-37 -10 -32 -19 -51 -17 -80 8 -37 31 -22 42 55 42 41 0 76 3 80 6 8 9 -12 60
-31 77 -23 21 -72 29 -97 15z m80 -28 c7 -6 15 -20 18 -30 5 -18 0 -20 -59
-20 -45 0 -64 4 -64 13 1 44 68 68 105 37z"/>
<path d="M5359 3527 c-13 -7 -32 -29 -42 -50 -18 -36 -18 -38 0 -74 13 -27 28
-41 53 -49 39 -13 85 -2 94 23 8 19 -2 32 -12 16 -4 -7 -19 -16 -32 -21 -32
-12 -64 2 -79 34 l-11 24 80 0 c88 0 93 5 65 60 -20 39 -75 57 -116 37z m82
-33 c36 -32 24 -44 -46 -44 -57 0 -64 2 -58 18 9 26 44 51 66 46 11 -2 28 -11
38 -20z"/>
<path d="M5582 3529 c4 -8 21 -51 39 -97 22 -57 37 -82 47 -80 20 4 88 166 75
179 -7 7 -20 -16 -39 -65 -16 -42 -32 -76 -36 -76 -3 0 -17 30 -30 66 -13 36
-32 70 -42 76 -15 8 -18 7 -14 -3z"/>
<path d="M5915 3530 c-51 -20 -73 -87 -45 -140 13 -25 66 -50 89 -43 37 11 61
27 61 40 0 17 -15 17 -30 -2 -13 -16 -57 -20 -76 -7 -6 4 -16 17 -23 30 -12
22 -11 22 63 22 42 0 78 5 81 11 4 5 2 22 -4 37 -19 45 -74 69 -116 52z m87
-43 c19 -30 8 -37 -57 -37 -63 0 -64 1 -56 23 16 44 88 53 113 14z"/>
<path d="M6368 3528 c-33 -12 -62 -69 -53 -107 24 -109 178 -92 178 19 0 67
-61 111 -125 88z m76 -34 c42 -41 19 -115 -37 -122 -32 -4 -67 32 -67 70 0 55
68 89 104 52z"/>
<path d="M6668 3525 c-16 -7 -28 -10 -28 -4 0 5 -7 9 -15 9 -13 0 -15 -19 -13
-127 2 -77 7 -128 13 -128 6 0 11 25 13 55 2 30 7 49 11 42 4 -7 21 -16 38
-21 64 -19 115 43 98 119 -11 50 -72 79 -117 55z m76 -34 c27 -30 18 -91 -16
-111 -25 -13 -31 -13 -55 0 -22 13 -29 24 -31 57 -4 48 16 73 57 73 15 0 36
-9 45 -19z"/>
<path d="M6955 3531 c-78 -32 -77 -151 2 -178 35 -12 89 1 97 23 9 24 -1 30
-21 12 -35 -32 -83 -23 -101 17 l-12 25 80 0 c63 0 80 3 80 15 0 30 -24 65
-55 80 -37 17 -42 17 -70 6z m78 -39 c34 -30 21 -42 -48 -42 -36 0 -65 3 -65
6 0 16 24 46 43 53 25 9 44 5 70 -17z"/>
<path d="M7243 3520 c-24 -14 -31 -15 -26 -5 3 9 -1 15 -11 15 -13 0 -16 -14
-16 -90 0 -67 3 -90 13 -90 9 0 14 18 15 61 2 63 20 99 49 99 7 0 13 7 13 15
0 19 1 19 -37 -5z"/>
<path d="M3334 2082 c18 -30 546 -255 649 -277 9 -2 22 -7 27 -10 6 -4 63 -22
128 -41 140 -41 289 -76 467 -109 48 -9 201 -18 195 -12 -3 3 -32 8 -65 12
-77 7 -120 12 -153 19 -15 3 -43 8 -62 11 -19 3 -43 8 -53 11 -11 3 -29 7 -40
9 -37 6 -80 16 -88 20 -4 3 -24 7 -45 11 -22 3 -48 11 -59 17 -11 6 -20 9 -20
8 0 -6 -236 66 -285 86 -8 3 -19 7 -25 9 -77 22 -389 154 -517 220 -51 26 -62
29 -54 16z"/>
</g>
</svg>
